<svg xmlns="http://www.w3.org/2000/svg" xmlns:xlink="http://www.w3.org/1999/xlink" xmlns:lucid="lucid" width="566.14" height="601.79"><g transform="translate(572.1658935986338 -817.4020351786064)" lucid:page-tab-id="NqBThpYtoh4M"><path d="M-1000 500H0v1000h-1000z" fill="#fff"/><path d="M-28.68 1074.08c0 30.56-37 55.34-82.67 55.34-45.65 0-82.66-24.78-82.66-55.34 0-30.56 37-55.33 82.66-55.33 45.65 0 82.66 24.77 82.66 55.33z" stroke="#3a414a" fill="#dedeff"/><use xlink:href="#a" transform="matrix(1,0,0,1,-189.01162513699148,1023.7490357609627) translate(40.40740740740741 55.65277777777778)"/><path d="M-334.07 1260.9l-51.3.37v-1l51.3-.36zm138.65-.63v1l-50.9-.45v-1z" stroke="#3a414a" stroke-width=".05" fill="#3a414a"/><path d="M-385.37 1261.27h-.5l-.03-1h.53z" fill="#3a414a"/><path d="M-385.34 1261.3h-.55l-.02-1.04.57-.02zm-.53-1l.02.95h.46v-.95zM-194.5 1260.77l-18.05 10.46-.5-.87 16.57-9.6-16.4-9.9.52-.85z" stroke="#3a414a" stroke-width=".05" fill="#3a414a"/><use xlink:href="#b" transform="matrix(1,0,0,1,-334.0725676715041,1249.4305555230792) translate(0 14.222222222222223)"/><use xlink:href="#c" transform="matrix(1,0,0,1,-334.0725676715041,1249.4305555230792) translate(17.728395061728396 14.222222222222223)"/><use xlink:href="#d" transform="matrix(1,0,0,1,-334.0725676715041,1249.4305555230792) translate(67.06172839506173 14.222222222222223)"/><path d="M-386.33 1074.08c0 30.56-37 55.34-82.67 55.34-45.65 0-82.67-24.78-82.67-55.34 0-30.56 37-55.33 82.67-55.33 45.66 0 82.67 24.77 82.67 55.33z" stroke="#3a414a" fill="#dedeff"/><use xlink:href="#e" transform="matrix(1,0,0,1,-546.6658935986338,1023.7490357609629) translate(18.185185185185183 55.65277777777778)"/><path d="M-348.1 1074.58h-37.23v-1h37.22zm152.68 0h-63.85v-1h63.85z" stroke="#3a414a" stroke-width=".05" fill="#3a414a"/><path d="M-385.32 1074.58h-.53l.02-.5-.02-.5h.53z" fill="#3a414a"/><path d="M-385.3 1074.6h-.57v-1.04h.57zm-.52-1v.96h.47v-.95zM-194.5 1074.08l-17.96 10.6-.5-.85 16.48-9.75-16.48-9.75.5-.86z" stroke="#3a414a" stroke-width=".05" fill="#3a414a"/><use xlink:href="#f" transform="matrix(1,0,0,1,-348.1113149803765,1052.749035760963) translate(0.005000000000002558 14.222222222222223)"/><use xlink:href="#g" transform="matrix(1,0,0,1,-348.1113149803765,1052.749035760963) translate(33.58524691358026 14.222222222222223)"/><use xlink:href="#h" transform="matrix(1,0,0,1,-348.1113149803765,1052.749035760963) translate(5.461790123456801 35.55555555555556)"/><use xlink:href="#i" transform="matrix(1,0,0,1,-348.1113149803765,1052.749035760963) translate(25.21487654320989 35.55555555555556)"/><path d="M-28.68 1260.77c0 30.56-37 55.34-82.67 55.34-45.65 0-82.66-24.77-82.66-55.33s37-55.33 82.66-55.33c45.65 0 82.66 24.77 82.66 55.33z" stroke="#3a414a" fill="#e3fae3"/><use xlink:href="#j" transform="matrix(1,0,0,1,-189.01162513699154,1210.4394774461844) translate(48.40123456790124 55.65277777777778)"/><path d="M-110.84 1204.03h-1v-25.94h1zm0-47.27h-1v-26.34h1z" stroke="#fe7070" stroke-width=".05" fill="#fe7070"/><path d="M-111.34 1129.92l.5-.02v.53h-1v-.53z" fill="#fe7070"/><path d="M-111.34 1129.9l.52-.02v.57h-1.05v-.58zm-.48.5h.95v-.47h-.95zM-111.34 1202.97l9.75-16.48.87.5-10.6 17.94-10.63-17.94.86-.5z" stroke="#fe7070" stroke-width=".05" fill="#fe7070"/><use xlink:href="#k" transform="matrix(1,0,0,1,-125.14742760612727,1156.7609234466813) translate(0.005000000000000782 14.222222222222223)"/><use xlink:href="#l" transform="matrix(1,0,0,1,-125.14742760612727,1156.7609234466813) translate(17.733395061728395 14.222222222222223)"/><path d="M-468.5 1205.78h-1v-26.8h1zm0-48.14h-1v-27.22h1z" stroke="#3a414a" stroke-width=".05" fill="#3a414a"/><path d="M-469 1129.92l.5-.02v.53h-1v-.53z" fill="#3a414a"/><path d="M-469 1129.9l.53-.02v.57h-1.05v-.58zm-.47.5h.95v-.47h-.95zM-458.4 1188.75l-10.6 17.94-10.6-17.95.85-.5 9.75 16.47 9.75-16.48z" stroke="#3a414a" stroke-width=".05" fill="#3a414a"/><use xlink:href="#f" transform="matrix(1,0,0,1,-507.46836273443625,1157.6356483992909) translate(0.005000000000002558 14.222222222222223)"/><use xlink:href="#m" transform="matrix(1,0,0,1,-507.46836273443625,1157.6356483992909) translate(33.58524691358026 14.222222222222223)"/><path d="M-386.33 1262.52c0 30.56-37 55.34-82.67 55.34-45.65 0-82.67-24.78-82.67-55.34 0-30.56 37-55.33 82.67-55.33 45.66 0 82.67 24.76 82.67 55.32z" stroke="#3a414a" fill="#e3fae3"/><use xlink:href="#n" transform="matrix(1,0,0,1,-546.6658935986338,1212.188927351403) translate(15.746913580246918 55.65277777777778)"/><use xlink:href="#o" transform="matrix(1,0,0,1,-546.6658935986338,1212.188927351403) translate(81.11728395061729 55.65277777777778)"/><path d="M-386.33 893.24c0 30.55-37 55.33-82.67 55.33-45.65 0-82.67-24.78-82.67-55.34 0-30.55 37-55.33 82.67-55.33 45.66 0 82.67 24.78 82.67 55.34z" stroke="#3a414a" fill-opacity="0"/><use xlink:href="#p" transform="matrix(1,0,0,1,-546.6658935986338,842.9020351786064) translate(23.832160493827153 43.02777777777778)"/><use xlink:href="#q" transform="matrix(1,0,0,1,-546.6658935986338,842.9020351786064) translate(112.65932098765433 43.02777777777778)"/><use xlink:href="#r" transform="matrix(1,0,0,1,-546.6658935986338,842.9020351786064) translate(47.90623456790124 69.69444444444446)"/><path d="M-468.5 1017.75h-1v-23.42h1zm0-44.76h-1v-23.02h1z" stroke="#3a414a" stroke-width=".05" fill="#3a414a"/><path d="M-468.5 1018.26h-1v-.52h1z" fill="#3a414a"/><path d="M-468.47 1018.3l-.53-.03-.52.02v-.6h1.05zm-1-.54v.48l.47-.02.48.02v-.48zM-458.4 967l-.85.52-9.75-16.5-9.75 16.5-.86-.5 10.6-17.95z" stroke="#3a414a" stroke-width=".05" fill="#3a414a"/><use xlink:href="#s" transform="matrix(1,0,0,1,-540.530091129498,972.9922023128927) translate(0.0049999999999954525 14.222222222222223)"/><use xlink:href="#t" transform="matrix(1,0,0,1,-540.530091129498,972.9922023128927) translate(77.98030864197531 14.222222222222223)"/><path d="M-412.1 1343.25a6 6 0 0 1 6-6h226.5a6 6 0 0 1 6 6v49.45a6 6 0 0 1-6 6h-226.5a6 6 0 0 1-6-6z" fill="#fff" fill-opacity="0"/><path d="M-408.38 1337.73l.43-.18.92-.22.94-.08h2.03m4.04 0h4.05m4.04 0h4.05m4.05 0h4.05m4.04 0h4.05m4.03 0h4.05m4.04 0h4.04m4.05 0h4.05m4.05 0h4.04m4.05 0h4.03m4.05 0h4.04m4.05 0h4.04m4.06 0h4.04m4.04 0h4.05m4.03 0h4.05m4.04 0h4.05m4.04 0h4.06m4.04 0h4.05m4.04 0h4.03m4.05 0h4.04m4.05 0h4.04m4.06 0h4.04m4.05 0h4.04m4.04 0h4.04m4.05 0h4.04m4.04 0h4.06m4.04 0h4.05m4.04 0h4.04m4.04 0h2.02l.94.08.92.22.43.18m3.23 3.23l.18.44.23.9.07.95v2.06m0 4.13v4.12m0 4.12v4.13m0 4.12v4.12m0 4.12v4.12m0 4.12v4.12m0 4.12v2.06l-.07.93-.22.92-.17.44m-3.24 3.22l-.44.18-.92.22-.94.08h-2.02m-4.04 0h-4.05m-4.05 0h-4.05m-4.04 0h-4.05m-4.03 0h-4.04m-4.05 0h-4.04m-4.05 0h-4.05m-4.05 0h-4.04m-4.05 0h-4.03m-4.05 0h-4.04m-4.05 0h-4.04m-4.06 0h-4.04m-4.04 0h-4.05m-4.03 0h-4.05m-4.04 0h-4.05m-4.04 0h-4.06m-4.04 0h-4.05m-4.04 0h-4.03m-4.05 0h-4.04m-4.05 0h-4.04m-4.06 0h-4.04m-4.05 0h-4.04m-4.04 0h-4.04m-4.05 0h-4.04m-4.04 0h-4.06m-4.04 0h-4.05m-4.04 0h-4.04m-4.04 0h-4.05m-4.04 0h-2.02l-.93-.08-.92-.22-.43-.18m-3.24-3.23l-.18-.45-.22-.9-.07-.95v-2.06m0-4.12v-4.12m0-4.12v-4.13m0-4.12v-4.12m0-4.1v-4.13m0-4.12v-4.12m0-4.12v-2.05l.08-.93.22-.92.18-.44" stroke="#979ea8" fill="none"/><use xlink:href="#u" transform="matrix(1,0,0,1,-407.0931866246646,1342.253289701334) translate(1.1358024691357969 21.02777777777778)"/><use xlink:href="#v" transform="matrix(1,0,0,1,-407.0931866246646,1342.253289701334) translate(26.999999999999993 21.02777777777778)"/><use xlink:href="#w" transform="matrix(1,0,0,1,-407.0931866246646,1342.253289701334) translate(67.67901234567901 21.02777777777778)"/><use xlink:href="#x" transform="matrix(1,0,0,1,-407.0931866246646,1342.253289701334) translate(89.8395061728395 21.02777777777778)"/><use xlink:href="#y" transform="matrix(1,0,0,1,-407.0931866246646,1342.253289701334) translate(12.277777777777771 47.69444444444444)"/><use xlink:href="#v" transform="matrix(1,0,0,1,-407.0931866246646,1342.253289701334) translate(78.75925925925925 47.69444444444444)"/><use xlink:href="#w" transform="matrix(1,0,0,1,-407.0931866246646,1342.253289701334) translate(119.43827160493828 47.69444444444444)"/><use xlink:href="#z" transform="matrix(1,0,0,1,-407.0931866246646,1342.253289701334) translate(141.5987654320988 47.69444444444444)"/><path d="M-292.35 1336.25h-1v-1.84h1zm0-5.52h-1v-3.68h1zm0-7.36h-1v-3.68h1zm0-7.36h-1v-3.67h1zm0-7.36h-1v-3.68h1zm0-7.36h-1v-1.84h1z" stroke="#979ea8" stroke-width=".05" fill="#979ea8"/><path d="M-292.35 1336.75h-1v-.5h1z" fill="#979ea8"/><path d="M-292.32 1336.78h-1.05v-.56h1.05zm-1-.5v.45h.95v-.46z" stroke="#979ea8" stroke-width=".05" fill="#979ea8"/><path d="M-288.2 1298.94h-9.28l4.63-14.27z" fill="#979ea8"/><path d="M-287.52 1299.44h-10.65l5.32-16.38zm-9.27-1h7.9l-3.95-12.15zM-170.6 1368.47h-2v-1h2zm7.9 0h-3.95v-1h3.96zm7.94 0h-3.96v-1h3.96zm7.93 0h-3.96v-1h3.97zm7.93 0h-3.97v-1h3.97zm7.93 0h-3.97v-1h3.97zm7.93 0H-127v-1h3.96zm7.93 0h-3.98v-1h3.97zm7.9 0h-3.95v-1h3.96zm7.94 0h-3.96v-1h3.96zm7.93 0h-3.97v-1h3.97zm7.93 0h-3.97v-1h3.97zm7.93 0h-3.97v-1h3.97zm7.92 0h-3.96v-1h3.95zm7.93 0h-3.96v-1h3.96zm7.93 0h-3.95v-1h3.96zm7.94 0h-3.96v-1h3.96zm7.93 0h-3.97v-1h3.97zm7.93 0h-3.97v-1h3.97zm7.92 0h-3.96v-1h3.96zm8.43-.5l-.47.2-1 .23-1 .07h-2v-1h1.97l.88-.06.84-.2.4-.16zm4.02-5.98l-.08 1-.25.98-.2.47-.9-.38.15-.4.2-.84.07-.88v-2h1zm0-6.13h-1v-4.07h1zm0-8.13h-1v-4.07h1zm0-8.14h-1v-4.07h1zm0-8.14h-1v-4.07h1zm0-8.13h-1v-4.07h1zm0-8.14h-1v-4.08h1zm0-8.15h-1v-4.07h1zm0-8.13h-1v-4.07h1zm0-8.14h-1v-4.07h1zm0-8.14h-1v-4.07h1zm0-8.13h-1v-4.06h1zm0-8.13h-1v-4.07h1zm0-8.14h-1v-4.07h1zm0-8.14h-1v-4.07h1zm0-8.14h-1v-4.07h1zm0-8.14h-1v-4.07h1zm0-8.14h-1v-4.06h1zm0-8.13h-1v-4.07h1zm0-8.14h-1v-4.06h1zm0-8.13h-1v-4.07h1zm0-8.13h-1v-4.07h1zm0-8.14h-1v-4.07h1zm-.3-12.18l.22 1 .07 1v2.04h-1v-2l-.07-.9-.2-.83-.16-.4.92-.38zm-5.18-4.4l.98.23.47.2-.38.92-.4-.17-.84-.2-.88-.07h-1.92v-1H-14zm-6.84.9h-3.88v-1h3.88zm-7.76 0h-3.87v-1h3.87zm-7.75 0h-3.88v-1h3.88zm-7.75 0h-3.88v-1h3.88zm-7.75 0h-3.88v-1h3.88zm-7.76 0h-3.88v-1h3.87zm-7.76 0h-1.94v-1h1.94z" stroke="#979ea8" stroke-width=".05" fill="#979ea8"/><path d="M-172.58 1368.47h-.52v-1h.52z" fill="#979ea8"/><path d="M-172.56 1368.5h-.56v-1.05h.56zm-.5-1v.95h.45v-.95z" stroke="#979ea8" stroke-width=".05" fill="#979ea8"/><path d="M-68.8 1173.46l-14.26-4.63 14.26-4.64z" fill="#979ea8"/><path d="M-68.3 1174.15l-16.38-5.32 16.38-5.32zm-13.14-5.32l12.14 3.95v-7.9z" stroke="#979ea8" stroke-width=".05" fill="#979ea8"/><defs><path fill="#3a414a" d="M185-189c-5-48-123-54-124 2 14 75 158 14 163 119 3 78-121 87-175 55-17-10-28-26-33-46l33-7c5 56 141 63 141-1 0-78-155-14-162-118-5-82 145-84 179-34 5 7 8 16 11 25" id="A"/><path fill="#3a414a" d="M141-36C126-15 110 5 73 4 37 3 15-17 15-53c-1-64 63-63 125-63 3-35-9-54-41-54-24 1-41 7-42 31l-33-3c5-37 33-52 76-52 45 0 72 20 72 64v82c-1 20 7 32 28 27v20c-31 9-61-2-59-35zM48-53c0 20 12 33 32 33 41-3 63-29 60-74-43 2-92-5-92 41" id="B"/><path fill="#3a414a" d="M210-169c-67 3-38 105-44 169h-31v-121c0-29-5-50-35-48C34-165 62-65 56 0H25l-1-190h30c1 10-1 24 2 32 10-44 99-50 107 0 11-21 27-35 58-36 85-2 47 119 55 194h-31v-121c0-29-5-49-35-48" id="C"/><path fill="#3a414a" d="M115-194c55 1 70 41 70 98S169 2 115 4C84 4 66-9 55-30l1 105H24l-1-265h31l2 30c10-21 28-34 59-34zm-8 174c40 0 45-34 45-75s-6-73-45-74c-42 0-51 32-51 76 0 43 10 73 51 73" id="D"/><path fill="#3a414a" d="M24 0v-261h32V0H24" id="E"/><path fill="#3a414a" d="M100-194c63 0 86 42 84 106H49c0 40 14 67 53 68 26 1 43-12 49-29l28 8c-11 28-37 45-77 45C44 4 14-33 15-96c1-61 26-98 85-98zm52 81c6-60-76-77-97-28-3 7-6 17-6 28h103" id="F"/><g id="a"><use transform="matrix(0.06172839506172839,0,0,0.06172839506172839,0,0)" xlink:href="#A"/><use transform="matrix(0.06172839506172839,0,0,0.06172839506172839,14.814814814814813,0)" xlink:href="#B"/><use transform="matrix(0.06172839506172839,0,0,0.06172839506172839,27.160493827160494,0)" xlink:href="#C"/><use transform="matrix(0.06172839506172839,0,0,0.06172839506172839,45.61728395061728,0)" xlink:href="#D"/><use transform="matrix(0.06172839506172839,0,0,0.06172839506172839,57.962962962962955,0)" xlink:href="#E"/><use transform="matrix(0.06172839506172839,0,0,0.06172839506172839,62.8395061728395,0)" xlink:href="#F"/></g><path fill="#333" d="M24-231v-30h32v30H24zM24 0v-190h32V0H24" id="G"/><path fill="#333" d="M135-143c-3-34-86-38-87 0 15 53 115 12 119 90S17 21 10-45l28-5c4 36 97 45 98 0-10-56-113-15-118-90-4-57 82-63 122-42 12 7 21 19 24 35" id="H"/><g id="b"><use transform="matrix(0.04938271604938272,0,0,0.04938271604938272,0,0)" xlink:href="#G"/><use transform="matrix(0.04938271604938272,0,0,0.04938271604938272,3.901234567901235,0)" xlink:href="#H"/></g><path fill="#333" d="M117-194c89-4 53 116 60 194h-32v-121c0-31-8-49-39-48C34-167 62-67 57 0H25l-1-190h30c1 10-1 24 2 32 11-22 29-35 61-36" id="I"/><path fill="#333" d="M141-36C126-15 110 5 73 4 37 3 15-17 15-53c-1-64 63-63 125-63 3-35-9-54-41-54-24 1-41 7-42 31l-33-3c5-37 33-52 76-52 45 0 72 20 72 64v82c-1 20 7 32 28 27v20c-31 9-61-2-59-35zM48-53c0 20 12 33 32 33 41-3 63-29 60-74-43 2-92-5-92 41" id="J"/><path fill="#333" d="M210-169c-67 3-38 105-44 169h-31v-121c0-29-5-50-35-48C34-165 62-65 56 0H25l-1-190h30c1 10-1 24 2 32 10-44 99-50 107 0 11-21 27-35 58-36 85-2 47 119 55 194h-31v-121c0-29-5-49-35-48" id="K"/><path fill="#333" d="M100-194c63 0 86 42 84 106H49c0 40 14 67 53 68 26 1 43-12 49-29l28 8c-11 28-37 45-77 45C44 4 14-33 15-96c1-61 26-98 85-98zm52 81c6-60-76-77-97-28-3 7-6 17-6 28h103" id="L"/><g id="c"><use transform="matrix(0.04938271604938272,0,0,0.04938271604938272,0,0)" xlink:href="#I"/><use transform="matrix(0.04938271604938272,0,0,0.04938271604938272,9.876543209876544,0)" xlink:href="#J"/><use transform="matrix(0.04938271604938272,0,0,0.04938271604938272,19.75308641975309,0)" xlink:href="#K"/><use transform="matrix(0.04938271604938272,0,0,0.04938271604938272,34.51851851851852,0)" xlink:href="#L"/></g><path fill="#333" d="M101-234c-31-9-42 10-38 44h38v23H63V0H32v-167H5v-23h27c-7-52 17-82 69-68v24" id="M"/><path fill="#333" d="M100-194c62-1 85 37 85 99 1 63-27 99-86 99S16-35 15-95c0-66 28-99 85-99zM99-20c44 1 53-31 53-75 0-43-8-75-51-75s-53 32-53 75 10 74 51 75" id="N"/><path fill="#333" d="M114-163C36-179 61-72 57 0H25l-1-190h30c1 12-1 29 2 39 6-27 23-49 58-41v29" id="O"/><g id="d"><use transform="matrix(0.04938271604938272,0,0,0.04938271604938272,0,0)" xlink:href="#M"/><use transform="matrix(0.04938271604938272,0,0,0.04938271604938272,4.938271604938272,0)" xlink:href="#N"/><use transform="matrix(0.04938271604938272,0,0,0.04938271604938272,14.814814814814817,0)" xlink:href="#O"/></g><path fill="#3a414a" d="M140-251c81 0 123 46 123 126C263-46 219 4 140 4 59 4 17-45 17-125s42-126 123-126zm0 227c63 0 89-41 89-101s-29-99-89-99c-61 0-89 39-89 99S79-25 140-24" id="P"/><path fill="#3a414a" d="M115-194c53 0 69 39 70 98 0 66-23 100-70 100C84 3 66-7 56-30L54 0H23l1-261h32v101c10-23 28-34 59-34zm-8 174c40 0 45-34 45-75 0-40-5-75-45-74-42 0-51 32-51 76 0 43 10 73 51 73" id="Q"/><path fill="#3a414a" d="M135-143c-3-34-86-38-87 0 15 53 115 12 119 90S17 21 10-45l28-5c4 36 97 45 98 0-10-56-113-15-118-90-4-57 82-63 122-42 12 7 21 19 24 35" id="R"/><path fill="#3a414a" d="M114-163C36-179 61-72 57 0H25l-1-190h30c1 12-1 29 2 39 6-27 23-49 58-41v29" id="S"/><path fill="#3a414a" d="M108 0H70L1-190h34L89-25l56-165h34" id="T"/><path fill="#3a414a" d="M59-47c-2 24 18 29 38 22v24C64 9 27 4 27-40v-127H5v-23h24l9-43h21v43h35v23H59v120" id="U"/><path fill="#3a414a" d="M24-231v-30h32v30H24zM24 0v-190h32V0H24" id="V"/><path fill="#3a414a" d="M100-194c62-1 85 37 85 99 1 63-27 99-86 99S16-35 15-95c0-66 28-99 85-99zM99-20c44 1 53-31 53-75 0-43-8-75-51-75s-53 32-53 75 10 74 51 75" id="W"/><path fill="#3a414a" d="M117-194c89-4 53 116 60 194h-32v-121c0-31-8-49-39-48C34-167 62-67 57 0H25l-1-190h30c1 10-1 24 2 32 11-22 29-35 61-36" id="X"/><g id="e"><use transform="matrix(0.06172839506172839,0,0,0.06172839506172839,0,0)" xlink:href="#P"/><use transform="matrix(0.06172839506172839,0,0,0.06172839506172839,17.28395061728395,0)" xlink:href="#Q"/><use transform="matrix(0.06172839506172839,0,0,0.06172839506172839,29.629629629629626,0)" xlink:href="#R"/><use transform="matrix(0.06172839506172839,0,0,0.06172839506172839,40.74074074074073,0)" xlink:href="#F"/><use transform="matrix(0.06172839506172839,0,0,0.06172839506172839,53.08641975308641,0)" xlink:href="#S"/><use transform="matrix(0.06172839506172839,0,0,0.06172839506172839,60.43209876543209,0)" xlink:href="#T"/><use transform="matrix(0.06172839506172839,0,0,0.06172839506172839,71.5432098765432,0)" xlink:href="#B"/><use transform="matrix(0.06172839506172839,0,0,0.06172839506172839,83.88888888888889,0)" xlink:href="#U"/><use transform="matrix(0.06172839506172839,0,0,0.06172839506172839,90.06172839506172,0)" xlink:href="#V"/><use transform="matrix(0.06172839506172839,0,0,0.06172839506172839,94.93827160493827,0)" xlink:href="#W"/><use transform="matrix(0.06172839506172839,0,0,0.06172839506172839,107.28395061728395,0)" xlink:href="#X"/></g><path fill="#333" d="M106-169C34-169 62-67 57 0H25v-261h32l-1 103c12-21 28-36 61-36 89 0 53 116 60 194h-32v-121c2-32-8-49-39-48" id="Y"/><g id="f"><use transform="matrix(0.04938271604938272,0,0,0.04938271604938272,0,0)" xlink:href="#Y"/><use transform="matrix(0.04938271604938272,0,0,0.04938271604938272,9.876543209876544,0)" xlink:href="#J"/><use transform="matrix(0.04938271604938272,0,0,0.04938271604938272,19.75308641975309,0)" xlink:href="#H"/></g><path fill="#333" d="M59-47c-2 24 18 29 38 22v24C64 9 27 4 27-40v-127H5v-23h24l9-43h21v43h35v23H59v120" id="Z"/><path fill="#333" d="M84 4C-5 8 30-112 23-190h32v120c0 31 7 50 39 49 72-2 45-101 50-169h31l1 190h-30c-1-10 1-25-2-33-11 22-28 36-60 37" id="aa"/><g id="g"><use transform="matrix(0.04938271604938272,0,0,0.04938271604938272,0,0)" xlink:href="#M"/><use transform="matrix(0.04938271604938272,0,0,0.04938271604938272,4.938271604938272,0)" xlink:href="#L"/><use transform="matrix(0.04938271604938272,0,0,0.04938271604938272,14.814814814814817,0)" xlink:href="#J"/><use transform="matrix(0.04938271604938272,0,0,0.04938271604938272,24.69135802469136,0)" xlink:href="#Z"/><use transform="matrix(0.04938271604938272,0,0,0.04938271604938272,29.629629629629633,0)" xlink:href="#aa"/><use transform="matrix(0.04938271604938272,0,0,0.04938271604938272,39.50617283950618,0)" xlink:href="#O"/><use transform="matrix(0.04938271604938272,0,0,0.04938271604938272,45.38271604938272,0)" xlink:href="#L"/></g><g id="h"><use transform="matrix(0.04938271604938272,0,0,0.04938271604938272,0,0)" xlink:href="#N"/><use transform="matrix(0.04938271604938272,0,0,0.04938271604938272,9.876543209876544,0)" xlink:href="#M"/></g><g id="i"><use transform="matrix(0.04938271604938272,0,0,0.04938271604938272,0,0)" xlink:href="#G"/><use transform="matrix(0.04938271604938272,0,0,0.04938271604938272,3.901234567901235,0)" xlink:href="#I"/><use transform="matrix(0.04938271604938272,0,0,0.04938271604938272,13.777777777777779,0)" xlink:href="#Z"/><use transform="matrix(0.04938271604938272,0,0,0.04938271604938272,18.71604938271605,0)" xlink:href="#L"/><use transform="matrix(0.04938271604938272,0,0,0.04938271604938272,28.592592592592595,0)" xlink:href="#O"/><use transform="matrix(0.04938271604938272,0,0,0.04938271604938272,34.46913580246914,0)" xlink:href="#L"/><use transform="matrix(0.04938271604938272,0,0,0.04938271604938272,44.345679012345684,0)" xlink:href="#H"/><use transform="matrix(0.04938271604938272,0,0,0.04938271604938272,53.23456790123457,0)" xlink:href="#Z"/></g><path fill="#3a414a" d="M127-220V0H93v-220H8v-28h204v28h-85" id="ab"/><path fill="#3a414a" d="M141 0L90-78 38 0H4l68-98-65-92h35l48 74 47-74h35l-64 92 68 98h-35" id="ac"/><g id="j"><use transform="matrix(0.06172839506172839,0,0,0.06172839506172839,0,0)" xlink:href="#ab"/><use transform="matrix(0.06172839506172839,0,0,0.06172839506172839,11.049382716049381,0)" xlink:href="#B"/><use transform="matrix(0.06172839506172839,0,0,0.06172839506172839,23.39506172839506,0)" xlink:href="#ac"/><use transform="matrix(0.06172839506172839,0,0,0.06172839506172839,34.50617283950617,0)" xlink:href="#W"/><use transform="matrix(0.06172839506172839,0,0,0.06172839506172839,46.85185185185185,0)" xlink:href="#X"/></g><path fill="#fe7070" d="M24-231v-30h32v30H24zM24 0v-190h32V0H24" id="ad"/><path fill="#fe7070" d="M135-143c-3-34-86-38-87 0 15 53 115 12 119 90S17 21 10-45l28-5c4 36 97 45 98 0-10-56-113-15-118-90-4-57 82-63 122-42 12 7 21 19 24 35" id="ae"/><g id="k"><use transform="matrix(0.04938271604938272,0,0,0.04938271604938272,0,0)" xlink:href="#ad"/><use transform="matrix(0.04938271604938272,0,0,0.04938271604938272,3.901234567901235,0)" xlink:href="#ae"/></g><path fill="#fe7070" d="M141-36C126-15 110 5 73 4 37 3 15-17 15-53c-1-64 63-63 125-63 3-35-9-54-41-54-24 1-41 7-42 31l-33-3c5-37 33-52 76-52 45 0 72 20 72 64v82c-1 20 7 32 28 27v20c-31 9-61-2-59-35zM48-53c0 20 12 33 32 33 41-3 63-29 60-74-43 2-92-5-92 41" id="af"/><use transform="matrix(0.04938271604938272,0,0,0.04938271604938272,0,0)" xlink:href="#af" id="l"/><path fill="#333" d="M24 0v-261h32V0H24" id="ag"/><g id="m"><use transform="matrix(0.04938271604938272,0,0,0.04938271604938272,0,0)" xlink:href="#O"/><use transform="matrix(0.04938271604938272,0,0,0.04938271604938272,5.8765432098765435,0)" xlink:href="#L"/><use transform="matrix(0.04938271604938272,0,0,0.04938271604938272,15.753086419753087,0)" xlink:href="#H"/><use transform="matrix(0.04938271604938272,0,0,0.04938271604938272,24.641975308641978,0)" xlink:href="#aa"/><use transform="matrix(0.04938271604938272,0,0,0.04938271604938272,34.51851851851852,0)" xlink:href="#ag"/><use transform="matrix(0.04938271604938272,0,0,0.04938271604938272,38.41975308641975,0)" xlink:href="#Z"/></g><g id="n"><use transform="matrix(0.06172839506172839,0,0,0.06172839506172839,0,0)" xlink:href="#ab"/><use transform="matrix(0.06172839506172839,0,0,0.06172839506172839,11.049382716049381,0)" xlink:href="#B"/><use transform="matrix(0.06172839506172839,0,0,0.06172839506172839,23.39506172839506,0)" xlink:href="#ac"/><use transform="matrix(0.06172839506172839,0,0,0.06172839506172839,34.50617283950617,0)" xlink:href="#W"/><use transform="matrix(0.06172839506172839,0,0,0.06172839506172839,46.85185185185185,0)" xlink:href="#X"/></g><path fill="#3a414a" d="M190 0L58-211 59 0H30v-248h39L202-35l-2-213h31V0h-41" id="ah"/><g id="o"><use transform="matrix(0.06172839506172839,0,0,0.06172839506172839,0,0)" xlink:href="#ah"/><use transform="matrix(0.06172839506172839,0,0,0.06172839506172839,15.987654320987653,0)" xlink:href="#B"/><use transform="matrix(0.06172839506172839,0,0,0.06172839506172839,28.333333333333332,0)" xlink:href="#C"/><use transform="matrix(0.06172839506172839,0,0,0.06172839506172839,46.79012345679012,0)" xlink:href="#F"/></g><path fill="#3a414a" d="M212-179c-10-28-35-45-73-45-59 0-87 40-87 99 0 60 29 101 89 101 43 0 62-24 78-52l27 14C228-24 195 4 139 4 59 4 22-46 18-125c-6-104 99-153 187-111 19 9 31 26 39 46" id="ai"/><path fill="#3a414a" d="M96-169c-40 0-48 33-48 73s9 75 48 75c24 0 41-14 43-38l32 2c-6 37-31 61-74 61-59 0-76-41-82-99-10-93 101-131 147-64 4 7 5 14 7 22l-32 3c-4-21-16-35-41-35" id="aj"/><g id="p"><use transform="matrix(0.06172839506172839,0,0,0.06172839506172839,0,0)" xlink:href="#ai"/><use transform="matrix(0.06172839506172839,0,0,0.06172839506172839,15.987654320987653,0)" xlink:href="#W"/><use transform="matrix(0.06172839506172839,0,0,0.06172839506172839,28.333333333333332,0)" xlink:href="#X"/><use transform="matrix(0.06172839506172839,0,0,0.06172839506172839,40.67901234567901,0)" xlink:href="#aj"/><use transform="matrix(0.06172839506172839,0,0,0.06172839506172839,51.79012345679013,0)" xlink:href="#F"/><use transform="matrix(0.06172839506172839,0,0,0.06172839506172839,64.13580246913581,0)" xlink:href="#D"/><use transform="matrix(0.06172839506172839,0,0,0.06172839506172839,76.4814814814815,0)" xlink:href="#U"/></g><path fill="#3a414a" d="M101-234c-31-9-42 10-38 44h38v23H63V0H32v-167H5v-23h27c-7-52 17-82 69-68v24" id="ak"/><g id="q"><use transform="matrix(0.06172839506172839,0,0,0.06172839506172839,0,0)" xlink:href="#W"/><use transform="matrix(0.06172839506172839,0,0,0.06172839506172839,12.345679012345679,0)" xlink:href="#ak"/></g><g id="r"><use transform="matrix(0.06172839506172839,0,0,0.06172839506172839,0,0)" xlink:href="#ab"/><use transform="matrix(0.06172839506172839,0,0,0.06172839506172839,11.049382716049381,0)" xlink:href="#B"/><use transform="matrix(0.06172839506172839,0,0,0.06172839506172839,23.39506172839506,0)" xlink:href="#ac"/><use transform="matrix(0.06172839506172839,0,0,0.06172839506172839,34.50617283950617,0)" xlink:href="#W"/><use transform="matrix(0.06172839506172839,0,0,0.06172839506172839,46.85185185185185,0)" xlink:href="#X"/></g><path fill="#333" d="M115-194c53 0 69 39 70 98 0 66-23 100-70 100C84 3 66-7 56-30L54 0H23l1-261h32v101c10-23 28-34 59-34zm-8 174c40 0 45-34 45-75 0-40-5-75-45-74-42 0-51 32-51 76 0 43 10 73 51 73" id="al"/><path fill="#333" d="M108 0H70L1-190h34L89-25l56-165h34" id="am"/><path fill="#333" d="M85-194c31 0 48 13 60 33l-1-100h32l1 261h-30c-2-10 0-23-3-31C134-8 116 4 85 4 32 4 16-35 15-94c0-66 23-100 70-100zm9 24c-40 0-46 34-46 75 0 40 6 74 45 74 42 0 51-32 51-76 0-42-9-74-50-73" id="an"/><g id="s"><use transform="matrix(0.04938271604938272,0,0,0.04938271604938272,0,0)" xlink:href="#N"/><use transform="matrix(0.04938271604938272,0,0,0.04938271604938272,9.876543209876544,0)" xlink:href="#al"/><use transform="matrix(0.04938271604938272,0,0,0.04938271604938272,19.75308641975309,0)" xlink:href="#H"/><use transform="matrix(0.04938271604938272,0,0,0.04938271604938272,28.641975308641978,0)" xlink:href="#L"/><use transform="matrix(0.04938271604938272,0,0,0.04938271604938272,38.51851851851852,0)" xlink:href="#O"/><use transform="matrix(0.04938271604938272,0,0,0.04938271604938272,44.39506172839506,0)" xlink:href="#am"/><use transform="matrix(0.04938271604938272,0,0,0.04938271604938272,53.28395061728394,0)" xlink:href="#L"/><use transform="matrix(0.04938271604938272,0,0,0.04938271604938272,63.1604938271605,0)" xlink:href="#an"/></g><path fill="#333" d="M115-194c55 1 70 41 70 98S169 2 115 4C84 4 66-9 55-30l1 105H24l-1-265h31l2 30c10-21 28-34 59-34zm-8 174c40 0 45-34 45-75s-6-73-45-74c-42 0-51 32-51 76 0 43 10 73 51 73" id="ao"/><path fill="#333" d="M179-190L93 31C79 59 56 82 12 73V49c39 6 53-20 64-50L1-190h34L92-34l54-156h33" id="ap"/><g id="t"><use transform="matrix(0.04938271604938272,0,0,0.04938271604938272,0,0)" xlink:href="#ao"/><use transform="matrix(0.04938271604938272,0,0,0.04938271604938272,9.876543209876544,0)" xlink:href="#O"/><use transform="matrix(0.04938271604938272,0,0,0.04938271604938272,15.753086419753087,0)" xlink:href="#N"/><use transform="matrix(0.04938271604938272,0,0,0.04938271604938272,25.629629629629633,0)" xlink:href="#ao"/><use transform="matrix(0.04938271604938272,0,0,0.04938271604938272,35.50617283950618,0)" xlink:href="#L"/><use transform="matrix(0.04938271604938272,0,0,0.04938271604938272,45.38271604938272,0)" xlink:href="#O"/><use transform="matrix(0.04938271604938272,0,0,0.04938271604938272,51.25925925925927,0)" xlink:href="#Z"/><use transform="matrix(0.04938271604938272,0,0,0.04938271604938272,56.19753086419754,0)" xlink:href="#ap"/></g><path fill="#979ea8" d="M33 0v-248h34V0H33" id="aq"/><path fill="#979ea8" d="M63-220v92h138v28H63V0H30v-248h175v28H63" id="ar"/><g id="u"><use transform="matrix(0.06172839506172839,0,0,0.06172839506172839,0,0)" xlink:href="#aq"/><use transform="matrix(0.06172839506172839,0,0,0.06172839506172839,6.172839506172839,0)" xlink:href="#ar"/></g><path fill="#979ea8" d="M59-47c-2 24 18 29 38 22v24C64 9 27 4 27-40v-127H5v-23h24l9-43h21v43h35v23H59v120" id="as"/><path fill="#979ea8" d="M106-169C34-169 62-67 57 0H25v-261h32l-1 103c12-21 28-36 61-36 89 0 53 116 60 194h-32v-121c2-32-8-49-39-48" id="at"/><path fill="#979ea8" d="M24-231v-30h32v30H24zM24 0v-190h32V0H24" id="au"/><path fill="#979ea8" d="M135-143c-3-34-86-38-87 0 15 53 115 12 119 90S17 21 10-45l28-5c4 36 97 45 98 0-10-56-113-15-118-90-4-57 82-63 122-42 12 7 21 19 24 35" id="av"/><g id="v"><use transform="matrix(0.06172839506172839,0,0,0.06172839506172839,0,0)" xlink:href="#as"/><use transform="matrix(0.06172839506172839,0,0,0.06172839506172839,6.172839506172839,0)" xlink:href="#at"/><use transform="matrix(0.06172839506172839,0,0,0.06172839506172839,18.51851851851852,0)" xlink:href="#au"/><use transform="matrix(0.06172839506172839,0,0,0.06172839506172839,23.395061728395063,0)" xlink:href="#av"/></g><g id="w"><use transform="matrix(0.06172839506172839,0,0,0.06172839506172839,0,0)" xlink:href="#au"/><use transform="matrix(0.06172839506172839,0,0,0.06172839506172839,4.876543209876543,0)" xlink:href="#av"/></g><path fill="#979ea8" d="M85-194c31 0 48 13 60 33l-1-100h32l1 261h-30c-2-10 0-23-3-31C134-8 116 4 85 4 32 4 16-35 15-94c0-66 23-100 70-100zm9 24c-40 0-46 34-46 75 0 40 6 74 45 74 42 0 51-32 51-76 0-42-9-74-50-73" id="aw"/><path fill="#979ea8" d="M100-194c63 0 86 42 84 106H49c0 40 14 67 53 68 26 1 43-12 49-29l28 8c-11 28-37 45-77 45C44 4 14-33 15-96c1-61 26-98 85-98zm52 81c6-60-76-77-97-28-3 7-6 17-6 28h103" id="ax"/><path fill="#979ea8" d="M114-163C36-179 61-72 57 0H25l-1-190h30c1 12-1 29 2 39 6-27 23-49 58-41v29" id="ay"/><path fill="#979ea8" d="M210-169c-67 3-38 105-44 169h-31v-121c0-29-5-50-35-48C34-165 62-65 56 0H25l-1-190h30c1 10-1 24 2 32 10-44 99-50 107 0 11-21 27-35 58-36 85-2 47 119 55 194h-31v-121c0-29-5-49-35-48" id="az"/><path fill="#979ea8" d="M141-36C126-15 110 5 73 4 37 3 15-17 15-53c-1-64 63-63 125-63 3-35-9-54-41-54-24 1-41 7-42 31l-33-3c5-37 33-52 76-52 45 0 72 20 72 64v82c-1 20 7 32 28 27v20c-31 9-61-2-59-35zM48-53c0 20 12 33 32 33 41-3 63-29 60-74-43 2-92-5-92 41" id="aA"/><path fill="#979ea8" d="M117-194c89-4 53 116 60 194h-32v-121c0-31-8-49-39-48C34-167 62-67 57 0H25l-1-190h30c1 10-1 24 2 32 11-22 29-35 61-36" id="aB"/><path fill="#979ea8" d="M96-169c-40 0-48 33-48 73s9 75 48 75c24 0 41-14 43-38l32 2c-6 37-31 61-74 61-59 0-76-41-82-99-10-93 101-131 147-64 4 7 5 14 7 22l-32 3c-4-21-16-35-41-35" id="aC"/><path fill="#979ea8" d="M68-38c1 34 0 65-14 84H32c9-13 17-26 17-46H33v-38h35" id="aD"/><g id="x"><use transform="matrix(0.06172839506172839,0,0,0.06172839506172839,0,0)" xlink:href="#aw"/><use transform="matrix(0.06172839506172839,0,0,0.06172839506172839,12.345679012345679,0)" xlink:href="#ax"/><use transform="matrix(0.06172839506172839,0,0,0.06172839506172839,24.691358024691358,0)" xlink:href="#as"/><use transform="matrix(0.06172839506172839,0,0,0.06172839506172839,30.864197530864196,0)" xlink:href="#ax"/><use transform="matrix(0.06172839506172839,0,0,0.06172839506172839,43.20987654320987,0)" xlink:href="#ay"/><use transform="matrix(0.06172839506172839,0,0,0.06172839506172839,50.55555555555555,0)" xlink:href="#az"/><use transform="matrix(0.06172839506172839,0,0,0.06172839506172839,69.01234567901234,0)" xlink:href="#aA"/><use transform="matrix(0.06172839506172839,0,0,0.06172839506172839,81.35802469135803,0)" xlink:href="#aB"/><use transform="matrix(0.06172839506172839,0,0,0.06172839506172839,93.70370370370371,0)" xlink:href="#au"/><use transform="matrix(0.06172839506172839,0,0,0.06172839506172839,98.58024691358025,0)" xlink:href="#av"/><use transform="matrix(0.06172839506172839,0,0,0.06172839506172839,109.69135802469137,0)" xlink:href="#as"/><use transform="matrix(0.06172839506172839,0,0,0.06172839506172839,115.8641975308642,0)" xlink:href="#au"/><use transform="matrix(0.06172839506172839,0,0,0.06172839506172839,120.74074074074075,0)" xlink:href="#aC"/><use transform="matrix(0.06172839506172839,0,0,0.06172839506172839,131.85185185185185,0)" xlink:href="#aD"/></g><path fill="#979ea8" d="M127-220V0H93v-220H8v-28h204v28h-85" id="aE"/><path fill="#979ea8" d="M197 0v-115H63V0H30v-248h33v105h134v-105h34V0h-34" id="aF"/><path fill="#979ea8" d="M30 0v-248h187v28H63v79h144v27H63v87h162V0H30" id="aG"/><path fill="#979ea8" d="M190 0L58-211 59 0H30v-248h39L202-35l-2-213h31V0h-41" id="aH"/><g id="y"><use transform="matrix(0.06172839506172839,0,0,0.06172839506172839,0,0)" xlink:href="#aE"/><use transform="matrix(0.06172839506172839,0,0,0.06172839506172839,13.518518518518517,0)" xlink:href="#aF"/><use transform="matrix(0.06172839506172839,0,0,0.06172839506172839,29.50617283950617,0)" xlink:href="#aG"/><use transform="matrix(0.06172839506172839,0,0,0.06172839506172839,44.32098765432099,0)" xlink:href="#aH"/></g><path fill="#979ea8" d="M101-234c-31-9-42 10-38 44h38v23H63V0H32v-167H5v-23h27c-7-52 17-82 69-68v24" id="aI"/><g id="z"><use transform="matrix(0.06172839506172839,0,0,0.06172839506172839,0,0)" xlink:href="#au"/><use transform="matrix(0.06172839506172839,0,0,0.06172839506172839,4.876543209876543,0)" xlink:href="#aB"/><use transform="matrix(0.06172839506172839,0,0,0.06172839506172839,17.22222222222222,0)" xlink:href="#aI"/><use transform="matrix(0.06172839506172839,0,0,0.06172839506172839,23.39506172839506,0)" xlink:href="#ax"/><use transform="matrix(0.06172839506172839,0,0,0.06172839506172839,35.74074074074074,0)" xlink:href="#ay"/><use transform="matrix(0.06172839506172839,0,0,0.06172839506172839,43.08641975308642,0)" xlink:href="#ay"/><use transform="matrix(0.06172839506172839,0,0,0.06172839506172839,50.432098765432094,0)" xlink:href="#ax"/><use transform="matrix(0.06172839506172839,0,0,0.06172839506172839,62.77777777777777,0)" xlink:href="#aw"/></g></defs></g></svg>