<svg xmlns="http://www.w3.org/2000/svg" xmlns:xlink="http://www.w3.org/1999/xlink" xmlns:lucid="lucid" width="630.01" height="451.52"><g transform="translate(527.9769054709551 91.0318760081966)" lucid:page-tab-id="0_0"><path d="M-500-500H500V500H-500z" fill="#fff"/><path d="M-216.62 224.67h-2v-24.4h2zm36.86-146.84h-32.82l-.66.05-.6.14-.6.24-.53.33-.47.4-.4.48-.34.53-.24.6-.15.6-.05.66v75.22h-2v-75.3l.07-.9.22-.9.36-.88.5-.8.6-.72.72-.6.8-.5.88-.36.9-.22.9-.08h32.9z" stroke="#979ea8" stroke-width=".05" fill="#979ea8"/><path d="M-177.94 76.83l-18.67 11.04-1.03-1.73 15.76-9.3-15.76-9.34 1.02-1.72z" stroke="#979ea8" stroke-width=".05" fill="#979ea8"/><path d="M-216.62 225.67h-2v-1.03h2z" fill="#979ea8"/><path d="M-216.6 225.7h-2.04v-1.08h2.05zm-2-1.03v.97h1.96v-.97z" stroke="#979ea8" stroke-width=".05" fill="#979ea8"/><use xlink:href="#a" transform="matrix(1,0,0,1,-240.09332131007548,157.0820916262323) translate(0.004999999999999005 14.4)"/><use xlink:href="#b" transform="matrix(1,0,0,1,-240.09332131007548,157.0820916262323) translate(3.9800000000000004 36)"/><path d="M-176.94 31.82a5 5 0 0 1 5-5h150a5 5 0 0 1 5 5v90a5 5 0 0 1-5 5h-150a5 5 0 0 1-5-5z" stroke="#000" stroke-width="2" fill="#fff"/><use xlink:href="#c" transform="matrix(1,0,0,1,-164.93931117060885,38.82496405180552) translate(24.049999999999997 31.025)"/><use xlink:href="#d" transform="matrix(1,0,0,1,-164.93931117060885,38.82496405180552) translate(44.05 52.625)"/><path d="M25.06 70.86l-.08 1.06-.26 1.07-.42 1-.57.94-.72.84-.82.7-.94.58-1 .42-1.08.26-1.06.1-32.22-.02v-2h32.14l.82-.06.77-.18.73-.3.67-.4.6-.52.5-.6.4-.67.3-.73.2-.76.06-.8V7.15h2zM-23-13.17h-67.9l-.82.06-.76.17-.73.3-.68.4-.6.52-.5.6-.4.66-.3.72-.2.76-.06.82v32.97h-2V-8.21l.08-1.07.26-1.07.42-1 .58-.95.7-.83.84-.7.94-.58 1.02-.44 1.06-.25 1.06-.08H-23z" stroke="#979ea8" stroke-width=".05" fill="#979ea8"/><path d="M-95.94 25.82h-2V24.8h2z" fill="#979ea8"/><path d="M-95.9 25.85h-2.06v-1.08h2.05zm-2-1.03v.98h1.94v-.98zM3.75 67.5L-12 76.83l15.75 9.3-1.02 1.74-18.67-11.05L2.73 65.78z" stroke="#979ea8" stroke-width=".05" fill="#979ea8"/><use xlink:href="#e" transform="matrix(1,0,0,1,-23.013435244682526,-35.508319281528046) translate(0.005000000000002558 14.222222222222223)"/><use xlink:href="#f" transform="matrix(1,0,0,1,-23.013435244682526,-35.508319281528046) translate(33.58524691358026 14.222222222222223)"/><use xlink:href="#g" transform="matrix(1,0,0,1,-23.013435244682526,-35.508319281528046) translate(13.80746913580247 35.55555555555556)"/><path d="M-275.9 231.67a5 5 0 0 1 5-5h150a5 5 0 0 1 5 5v90a5 5 0 0 1-5 5h-150a5 5 0 0 1-5-5z" stroke="#000" stroke-width="2" fill="#dfe3e8"/><use xlink:href="#h" transform="matrix(1,0,0,1,-263.9100888374246,238.66841008509977) translate(29.549999999999997 40.525)"/><path d="M-77.97 231.67a5 5 0 0 1 5-5h150a5 5 0 0 1 5 5v90a5 5 0 0 1-5 5h-150a5 5 0 0 1-5-5z" stroke="#000" stroke-width="2" fill="#dfe3e8"/><use xlink:href="#i" transform="matrix(1,0,0,1,-65.96853350379308,238.66841008509977) translate(34.525 40.525)"/><path d="M-167.63 198.08h1.05l-27.33 27.02-1.42-1.42 27.7-27.37zm70.68-68.84l-28.27 27.94v-1.77h-1.05l27.92-27.58z" stroke="#979ea8" stroke-width=".05" fill="#979ea8"/><path d="M-96.97 129.26l-1.4-1.42 2.85-.02z" fill="#979ea8"/><path d="M-96.97 129.3l-1.46-1.5h2.97zm-1.34-1.44l1.33 1.36 1.4-1.37zM-188.46 205.2l-4.66 17.7 17.76-4.44.5 1.94-21.05 5.27 5.5-20.98z" stroke="#979ea8" stroke-width=".05" fill="#979ea8"/><use xlink:href="#j" transform="matrix(1,0,0,1,-167.6345765472266,155.41335373511933) translate(0.004999999999999005 14.222222222222223)"/><use xlink:href="#k" transform="matrix(1,0,0,1,-167.6345765472266,155.41335373511933) translate(1.4617901234567903 35.55555555555556)"/><path d="M1.44 223.68l-1.4 1.42-27.34-27.02h2.85zM-67.6 155.4h-2.86l-26.47-26.16 1.4-1.42z" stroke="#979ea8" stroke-width=".05" fill="#979ea8"/><path d="M-95.5 127.83l-1.4 1.43-1.46-1.43h2.84z" fill="#979ea8"/><path d="M-95.47 127.83l-1.44 1.46-1.52-1.5h2.9zm-2.83.02l1.4 1.37 1.34-1.37zM2.03 225.67L-19 220.4l.48-1.94 17.76 4.45-4.66-17.7 1.94-.5z" stroke="#979ea8" stroke-width=".05" fill="#979ea8"/><use xlink:href="#l" transform="matrix(1,0,0,1,-104.63910752238615,155.41335373511933) translate(0.005000000000002558 14.222222222222223)"/><use xlink:href="#k" transform="matrix(1,0,0,1,-104.63910752238615,155.41335373511933) translate(37.4370987654321 35.55555555555556)"/><path d="M-497.96 113.96a5 5 0 0 1 5-5h150a5 5 0 0 1 5 5v90a5 5 0 0 1-5 5h-150a5 5 0 0 1-5-5z" stroke="#000" stroke-width="2" fill="#dfe3e8"/><use xlink:href="#m" transform="matrix(1,0,0,1,-485.96455979194275,120.96364278844578) translate(13.574999999999996 31.24375)"/><use xlink:href="#n" transform="matrix(1,0,0,1,-485.96455979194275,120.96364278844578) translate(63.475 31.24375)"/><use xlink:href="#o" transform="matrix(1,0,0,1,-485.96455979194275,120.96364278844578) translate(27.074999999999996 52.84375)"/><path d="M-497.96-9.18a5 5 0 0 1 5-5h150a5 5 0 0 1 5 5v90a5 5 0 0 1-5 5h-150a5 5 0 0 1-5-5z" stroke="#000" stroke-width="2" fill="#fff"/><use xlink:href="#m" transform="matrix(1,0,0,1,-485.96455979194275,-2.174985948194717) translate(13.574999999999996 31.025)"/><use xlink:href="#n" transform="matrix(1,0,0,1,-485.96455979194275,-2.174985948194717) translate(63.475 31.025)"/><use xlink:href="#p" transform="matrix(1,0,0,1,-485.96455979194275,-2.174985948194717) translate(50.025 52.625)"/><path d="M-480.02 337.2l-1.2-1.6 47.07-34.62h3.37zm125.96-92.65l-47.72 35.1h-3.37l49.9-36.7z" stroke="#979ea8" stroke-width=".05" fill="#979ea8"/><path d="M-353.25 243.96l-.83.6-1.2-1.6.84-.6zM-471.75 318.3l-7.17 16.85 18.22-1.83.2 2-21.58 2.16 8.5-19.95z" stroke="#979ea8" stroke-width=".05" fill="#979ea8"/><g><use xlink:href="#q" transform="matrix(1,0,0,1,-524.9769054709551,279.6512566963664) translate(0.0049999999999954525 14.222222222222223)"/><use xlink:href="#r" transform="matrix(1,0,0,1,-524.9769054709551,279.6512566963664) translate(70.0296913580247 14.222222222222223)"/><use xlink:href="#s" transform="matrix(1,0,0,1,-524.9769054709551,279.6512566963664) translate(133.19018518518521 14.222222222222223)"/></g><path d="M-452.52-65.03a6 6 0 0 1 6-6h57.1a6 6 0 0 1 6 6v32a6 6 0 0 1-6 6h-57.1a6 6 0 0 1-6-6z" stroke="#000" stroke-opacity="0" fill="#fff" fill-opacity="0"/><g><use xlink:href="#t" transform="matrix(1,0,0,1,-447.51992072091866,-66.0318760081966) translate(9.660493827160494 22.02777777777778)"/></g><path d="M-261.26 223.85h-2V123.52h2zm82.32-181.97h-78.28l-.66.06-.62.14-.57.24-.54.33-.5.4-.4.5-.32.52-.24.58-.15.6-.06.67v12.8h-2V45.85l.07-.9.23-.92.36-.87.48-.8.62-.72.7-.6.8-.5.88-.36.92-.22.9-.08h78.36z" stroke="#979ea8" stroke-width=".05" fill="#979ea8"/><path d="M-177.94 41.88h-1.03v-2h1.03z" fill="#979ea8"/><path d="M-177.9 41.9h-1.1v-2.04h1.1zm-1.04-2v1.96h.98V39.9zM-251.22 207l-11.04 18.67L-273.3 207l1.72-1.02 9.32 15.76 9.32-15.76z" stroke="#979ea8" stroke-width=".05" fill="#979ea8"/><g><use xlink:href="#u" transform="matrix(1,0,0,1,-293.7095385314297,58.71687910253879) translate(0.004999999999999005 14.4)"/><use xlink:href="#v" transform="matrix(1,0,0,1,-293.7095385314297,58.71687910253879) translate(17.955 14.4)"/><use xlink:href="#w" transform="matrix(1,0,0,1,-293.7095385314297,58.71687910253879) translate(20.980000000000004 36)"/><use xlink:href="#x" transform="matrix(1,0,0,1,-293.7095385314297,58.71687910253879) translate(12.955000000000002 57.6)"/></g><defs><path fill="#979ea8" d="M117-194c89-4 53 116 60 194h-32v-121c0-31-8-49-39-48C34-167 62-67 57 0H25l-1-190h30c1 10-1 24 2 32 11-22 29-35 61-36" id="y"/><path fill="#979ea8" d="M141-36C126-15 110 5 73 4 37 3 15-17 15-53c-1-64 63-63 125-63 3-35-9-54-41-54-24 1-41 7-42 31l-33-3c5-37 33-52 76-52 45 0 72 20 72 64v82c-1 20 7 32 28 27v20c-31 9-61-2-59-35zM48-53c0 20 12 33 32 33 41-3 63-29 60-74-43 2-92-5-92 41" id="z"/><path fill="#979ea8" d="M210-169c-67 3-38 105-44 169h-31v-121c0-29-5-50-35-48C34-165 62-65 56 0H25l-1-190h30c1 10-1 24 2 32 10-44 99-50 107 0 11-21 27-35 58-36 85-2 47 119 55 194h-31v-121c0-29-5-49-35-48" id="A"/><path fill="#979ea8" d="M100-194c63 0 86 42 84 106H49c0 40 14 67 53 68 26 1 43-12 49-29l28 8c-11 28-37 45-77 45C44 4 14-33 15-96c1-61 26-98 85-98zm52 81c6-60-76-77-97-28-3 7-6 17-6 28h103" id="B"/><g id="a"><use transform="matrix(0.05,0,0,0.05,0,0)" xlink:href="#y"/><use transform="matrix(0.05,0,0,0.05,10,0)" xlink:href="#z"/><use transform="matrix(0.05,0,0,0.05,20,0)" xlink:href="#A"/><use transform="matrix(0.05,0,0,0.05,34.95,0)" xlink:href="#B"/></g><path fill="#979ea8" d="M26 75v-336h71v23H56V52h41v23H26" id="C"/><path fill="#979ea8" d="M27 0v-27h64v-190l-56 39v-29l58-41h29v221h61V0H27" id="D"/><path fill="#979ea8" d="M33 0v-38h34V0H33" id="E"/><path fill="#979ea8" d="M80-196l47-18 7 23-49 13 32 44-20 13-27-46-27 45-21-12 33-44-49-13 8-23 47 19-2-53h23" id="F"/><path fill="#979ea8" d="M3 75V52h41v-290H3v-23h71V75H3" id="G"/><g id="b"><use transform="matrix(0.05,0,0,0.05,0,0)" xlink:href="#C"/><use transform="matrix(0.05,0,0,0.05,5,0)" xlink:href="#D"/><use transform="matrix(0.05,0,0,0.05,15,0)" xlink:href="#E"/><use transform="matrix(0.05,0,0,0.05,20,0)" xlink:href="#E"/><use transform="matrix(0.05,0,0,0.05,25,0)" xlink:href="#F"/><use transform="matrix(0.05,0,0,0.05,32,0)" xlink:href="#G"/></g><path d="M212-179c-10-28-35-45-73-45-59 0-87 40-87 99 0 60 29 101 89 101 43 0 62-24 78-52l27 14C228-24 195 4 139 4 59 4 22-46 18-125c-6-104 99-153 187-111 19 9 31 26 39 46" id="H"/><path d="M100-194c62-1 85 37 85 99 1 63-27 99-86 99S16-35 15-95c0-66 28-99 85-99zM99-20c44 1 53-31 53-75 0-43-8-75-51-75s-53 32-53 75 10 74 51 75" id="I"/><path d="M210-169c-67 3-38 105-44 169h-31v-121c0-29-5-50-35-48C34-165 62-65 56 0H25l-1-190h30c1 10-1 24 2 32 10-44 99-50 107 0 11-21 27-35 58-36 85-2 47 119 55 194h-31v-121c0-29-5-49-35-48" id="J"/><path d="M115-194c55 1 70 41 70 98S169 2 115 4C84 4 66-9 55-30l1 105H24l-1-265h31l2 30c10-21 28-34 59-34zm-8 174c40 0 45-34 45-75s-6-73-45-74c-42 0-51 32-51 76 0 43 10 73 51 73" id="K"/><path d="M84 4C-5 8 30-112 23-190h32v120c0 31 7 50 39 49 72-2 45-101 50-169h31l1 190h-30c-1-10 1-25-2-33-11 22-28 36-60 37" id="L"/><path d="M117-194c89-4 53 116 60 194h-32v-121c0-31-8-49-39-48C34-167 62-67 57 0H25l-1-190h30c1 10-1 24 2 32 11-22 29-35 61-36" id="M"/><path d="M85-194c31 0 48 13 60 33l-1-100h32l1 261h-30c-2-10 0-23-3-31C134-8 116 4 85 4 32 4 16-35 15-94c0-66 23-100 70-100zm9 24c-40 0-46 34-46 75 0 40 6 74 45 74 42 0 51-32 51-76 0-42-9-74-50-73" id="N"/><g id="c"><use transform="matrix(0.05,0,0,0.05,0,0)" xlink:href="#H"/><use transform="matrix(0.05,0,0,0.05,12.950000000000001,0)" xlink:href="#I"/><use transform="matrix(0.05,0,0,0.05,22.950000000000003,0)" xlink:href="#J"/><use transform="matrix(0.05,0,0,0.05,37.900000000000006,0)" xlink:href="#K"/><use transform="matrix(0.05,0,0,0.05,47.900000000000006,0)" xlink:href="#I"/><use transform="matrix(0.05,0,0,0.05,57.900000000000006,0)" xlink:href="#L"/><use transform="matrix(0.05,0,0,0.05,67.9,0)" xlink:href="#M"/><use transform="matrix(0.05,0,0,0.05,77.9,0)" xlink:href="#N"/></g><path d="M190 0L58-211 59 0H30v-248h39L202-35l-2-213h31V0h-41" id="O"/><path d="M141-36C126-15 110 5 73 4 37 3 15-17 15-53c-1-64 63-63 125-63 3-35-9-54-41-54-24 1-41 7-42 31l-33-3c5-37 33-52 76-52 45 0 72 20 72 64v82c-1 20 7 32 28 27v20c-31 9-61-2-59-35zM48-53c0 20 12 33 32 33 41-3 63-29 60-74-43 2-92-5-92 41" id="P"/><path d="M100-194c63 0 86 42 84 106H49c0 40 14 67 53 68 26 1 43-12 49-29l28 8c-11 28-37 45-77 45C44 4 14-33 15-96c1-61 26-98 85-98zm52 81c6-60-76-77-97-28-3 7-6 17-6 28h103" id="Q"/><g id="d"><use transform="matrix(0.05,0,0,0.05,0,0)" xlink:href="#O"/><use transform="matrix(0.05,0,0,0.05,12.950000000000001,0)" xlink:href="#P"/><use transform="matrix(0.05,0,0,0.05,22.950000000000003,0)" xlink:href="#J"/><use transform="matrix(0.05,0,0,0.05,37.900000000000006,0)" xlink:href="#Q"/></g><path fill="#979ea8" d="M106-169C34-169 62-67 57 0H25v-261h32l-1 103c12-21 28-36 61-36 89 0 53 116 60 194h-32v-121c2-32-8-49-39-48" id="R"/><path fill="#979ea8" d="M135-143c-3-34-86-38-87 0 15 53 115 12 119 90S17 21 10-45l28-5c4 36 97 45 98 0-10-56-113-15-118-90-4-57 82-63 122-42 12 7 21 19 24 35" id="S"/><g id="e"><use transform="matrix(0.04938271604938272,0,0,0.04938271604938272,0,0)" xlink:href="#R"/><use transform="matrix(0.04938271604938272,0,0,0.04938271604938272,9.876543209876544,0)" xlink:href="#z"/><use transform="matrix(0.04938271604938272,0,0,0.04938271604938272,19.75308641975309,0)" xlink:href="#S"/></g><path fill="#979ea8" d="M115-194c55 1 70 41 70 98S169 2 115 4C84 4 66-9 55-30l1 105H24l-1-265h31l2 30c10-21 28-34 59-34zm-8 174c40 0 45-34 45-75s-6-73-45-74c-42 0-51 32-51 76 0 43 10 73 51 73" id="T"/><path fill="#979ea8" d="M114-163C36-179 61-72 57 0H25l-1-190h30c1 12-1 29 2 39 6-27 23-49 58-41v29" id="U"/><path fill="#979ea8" d="M59-47c-2 24 18 29 38 22v24C64 9 27 4 27-40v-127H5v-23h24l9-43h21v43h35v23H59v120" id="V"/><g id="f"><use transform="matrix(0.04938271604938272,0,0,0.04938271604938272,0,0)" xlink:href="#T"/><use transform="matrix(0.04938271604938272,0,0,0.04938271604938272,9.876543209876544,0)" xlink:href="#z"/><use transform="matrix(0.04938271604938272,0,0,0.04938271604938272,19.75308641975309,0)" xlink:href="#U"/><use transform="matrix(0.04938271604938272,0,0,0.04938271604938272,25.629629629629633,0)" xlink:href="#V"/></g><g id="g"><use transform="matrix(0.04938271604938272,0,0,0.04938271604938272,0,0)" xlink:href="#C"/><use transform="matrix(0.04938271604938272,0,0,0.04938271604938272,4.938271604938272,0)" xlink:href="#D"/><use transform="matrix(0.04938271604938272,0,0,0.04938271604938272,14.814814814814817,0)" xlink:href="#E"/><use transform="matrix(0.04938271604938272,0,0,0.04938271604938272,19.75308641975309,0)" xlink:href="#E"/><use transform="matrix(0.04938271604938272,0,0,0.04938271604938272,24.69135802469136,0)" xlink:href="#F"/><use transform="matrix(0.04938271604938272,0,0,0.04938271604938272,31.60493827160494,0)" xlink:href="#G"/></g><path d="M233-177c-1 41-23 64-60 70L243 0h-38l-65-103H63V0H30v-248c88 3 205-21 203 71zM63-129c60-2 137 13 137-47 0-61-80-42-137-45v92" id="W"/><path d="M135-143c-3-34-86-38-87 0 15 53 115 12 119 90S17 21 10-45l28-5c4 36 97 45 98 0-10-56-113-15-118-90-4-57 82-63 122-42 12 7 21 19 24 35" id="X"/><path d="M114-163C36-179 61-72 57 0H25l-1-190h30c1 12-1 29 2 39 6-27 23-49 58-41v29" id="Y"/><path d="M96-169c-40 0-48 33-48 73s9 75 48 75c24 0 41-14 43-38l32 2c-6 37-31 61-74 61-59 0-76-41-82-99-10-93 101-131 147-64 4 7 5 14 7 22l-32 3c-4-21-16-35-41-35" id="Z"/><g id="h"><use transform="matrix(0.05,0,0,0.05,0,0)" xlink:href="#W"/><use transform="matrix(0.05,0,0,0.05,12.950000000000001,0)" xlink:href="#Q"/><use transform="matrix(0.05,0,0,0.05,22.950000000000003,0)" xlink:href="#X"/><use transform="matrix(0.05,0,0,0.05,31.950000000000003,0)" xlink:href="#I"/><use transform="matrix(0.05,0,0,0.05,41.95,0)" xlink:href="#L"/><use transform="matrix(0.05,0,0,0.05,51.95,0)" xlink:href="#Y"/><use transform="matrix(0.05,0,0,0.05,57.900000000000006,0)" xlink:href="#Z"/><use transform="matrix(0.05,0,0,0.05,66.9,0)" xlink:href="#Q"/></g><path d="M59-47c-2 24 18 29 38 22v24C64 9 27 4 27-40v-127H5v-23h24l9-43h21v43h35v23H59v120" id="aa"/><g id="i"><use transform="matrix(0.05,0,0,0.05,0,0)" xlink:href="#H"/><use transform="matrix(0.05,0,0,0.05,12.950000000000001,0)" xlink:href="#I"/><use transform="matrix(0.05,0,0,0.05,22.950000000000003,0)" xlink:href="#M"/><use transform="matrix(0.05,0,0,0.05,32.95,0)" xlink:href="#Z"/><use transform="matrix(0.05,0,0,0.05,41.95,0)" xlink:href="#Q"/><use transform="matrix(0.05,0,0,0.05,51.95,0)" xlink:href="#K"/><use transform="matrix(0.05,0,0,0.05,61.95,0)" xlink:href="#aa"/></g><path fill="#979ea8" d="M108 0H70L1-190h34L89-25l56-165h34" id="ab"/><path fill="#979ea8" d="M24 0v-261h32V0H24" id="ac"/><path fill="#979ea8" d="M84 4C-5 8 30-112 23-190h32v120c0 31 7 50 39 49 72-2 45-101 50-169h31l1 190h-30c-1-10 1-25-2-33-11 22-28 36-60 37" id="ad"/><g id="j"><use transform="matrix(0.04938271604938272,0,0,0.04938271604938272,0,0)" xlink:href="#ab"/><use transform="matrix(0.04938271604938272,0,0,0.04938271604938272,8.88888888888889,0)" xlink:href="#z"/><use transform="matrix(0.04938271604938272,0,0,0.04938271604938272,18.765432098765434,0)" xlink:href="#ac"/><use transform="matrix(0.04938271604938272,0,0,0.04938271604938272,22.666666666666668,0)" xlink:href="#ad"/><use transform="matrix(0.04938271604938272,0,0,0.04938271604938272,32.543209876543216,0)" xlink:href="#B"/></g><g id="k"><use transform="matrix(0.04938271604938272,0,0,0.04938271604938272,0,0)" xlink:href="#C"/><use transform="matrix(0.04938271604938272,0,0,0.04938271604938272,4.938271604938272,0)" xlink:href="#D"/><use transform="matrix(0.04938271604938272,0,0,0.04938271604938272,14.814814814814817,0)" xlink:href="#E"/><use transform="matrix(0.04938271604938272,0,0,0.04938271604938272,19.75308641975309,0)" xlink:href="#E"/><use transform="matrix(0.04938271604938272,0,0,0.04938271604938272,24.69135802469136,0)" xlink:href="#D"/><use transform="matrix(0.04938271604938272,0,0,0.04938271604938272,34.567901234567906,0)" xlink:href="#G"/></g><path fill="#979ea8" d="M85-194c31 0 48 13 60 33l-1-100h32l1 261h-30c-2-10 0-23-3-31C134-8 116 4 85 4 32 4 16-35 15-94c0-66 23-100 70-100zm9 24c-40 0-46 34-46 75 0 40 6 74 45 74 42 0 51-32 51-76 0-42-9-74-50-73" id="ae"/><path fill="#979ea8" d="M24-231v-30h32v30H24zM24 0v-190h32V0H24" id="af"/><path fill="#979ea8" d="M100-194c62-1 85 37 85 99 1 63-27 99-86 99S16-35 15-95c0-66 28-99 85-99zM99-20c44 1 53-31 53-75 0-43-8-75-51-75s-53 32-53 75 10 74 51 75" id="ag"/><path fill="#979ea8" d="M127-220V0H93v-220H8v-28h204v28h-85" id="ah"/><path fill="#979ea8" d="M179-190L93 31C79 59 56 82 12 73V49c39 6 53-20 64-50L1-190h34L92-34l54-156h33" id="ai"/><g id="l"><use transform="matrix(0.04938271604938272,0,0,0.04938271604938272,0,0)" xlink:href="#z"/><use transform="matrix(0.04938271604938272,0,0,0.04938271604938272,9.876543209876544,0)" xlink:href="#ae"/><use transform="matrix(0.04938271604938272,0,0,0.04938271604938272,19.75308641975309,0)" xlink:href="#ae"/><use transform="matrix(0.04938271604938272,0,0,0.04938271604938272,29.629629629629633,0)" xlink:href="#af"/><use transform="matrix(0.04938271604938272,0,0,0.04938271604938272,33.53086419753087,0)" xlink:href="#V"/><use transform="matrix(0.04938271604938272,0,0,0.04938271604938272,38.46913580246914,0)" xlink:href="#af"/><use transform="matrix(0.04938271604938272,0,0,0.04938271604938272,42.370370370370374,0)" xlink:href="#ag"/><use transform="matrix(0.04938271604938272,0,0,0.04938271604938272,52.24691358024692,0)" xlink:href="#y"/><use transform="matrix(0.04938271604938272,0,0,0.04938271604938272,62.12345679012346,0)" xlink:href="#z"/><use transform="matrix(0.04938271604938272,0,0,0.04938271604938272,72,0)" xlink:href="#ac"/><use transform="matrix(0.04938271604938272,0,0,0.04938271604938272,75.90123456790124,0)" xlink:href="#ah"/><use transform="matrix(0.04938271604938272,0,0,0.04938271604938272,85.72839506172839,0)" xlink:href="#ai"/><use transform="matrix(0.04938271604938272,0,0,0.04938271604938272,94.61728395061728,0)" xlink:href="#T"/><use transform="matrix(0.04938271604938272,0,0,0.04938271604938272,104.49382716049381,0)" xlink:href="#B"/></g><path d="M24 0v-261h32V0H24" id="aj"/><g id="m"><use transform="matrix(0.05,0,0,0.05,0,0)" xlink:href="#H"/><use transform="matrix(0.05,0,0,0.05,12.950000000000001,0)" xlink:href="#aj"/><use transform="matrix(0.05,0,0,0.05,16.900000000000002,0)" xlink:href="#P"/><use transform="matrix(0.05,0,0,0.05,26.900000000000002,0)" xlink:href="#X"/><use transform="matrix(0.05,0,0,0.05,35.900000000000006,0)" xlink:href="#X"/></g><path d="M101-234c-31-9-42 10-38 44h38v23H63V0H32v-167H5v-23h27c-7-52 17-82 69-68v24" id="ak"/><path d="M24-231v-30h32v30H24zM24 0v-190h32V0H24" id="al"/><g id="n"><use transform="matrix(0.05,0,0,0.05,0,0)" xlink:href="#N"/><use transform="matrix(0.05,0,0,0.05,10,0)" xlink:href="#Q"/><use transform="matrix(0.05,0,0,0.05,20,0)" xlink:href="#ak"/><use transform="matrix(0.05,0,0,0.05,25,0)" xlink:href="#al"/><use transform="matrix(0.05,0,0,0.05,28.950000000000003,0)" xlink:href="#M"/><use transform="matrix(0.05,0,0,0.05,38.95,0)" xlink:href="#Q"/><use transform="matrix(0.05,0,0,0.05,48.95,0)" xlink:href="#N"/></g><path d="M206 0h-36l-40-164L89 0H53L-1-190h32L70-26l43-164h34l41 164 42-164h31" id="am"/><path d="M106-169C34-169 62-67 57 0H25v-261h32l-1 103c12-21 28-36 61-36 89 0 53 116 60 194h-32v-121c2-32-8-49-39-48" id="an"/><g id="o"><use transform="matrix(0.05,0,0,0.05,0,0)" xlink:href="#Q"/><use transform="matrix(0.05,0,0,0.05,10,0)" xlink:href="#aj"/><use transform="matrix(0.05,0,0,0.05,13.949999999999998,0)" xlink:href="#X"/><use transform="matrix(0.05,0,0,0.05,22.95,0)" xlink:href="#Q"/><use transform="matrix(0.05,0,0,0.05,32.95,0)" xlink:href="#am"/><use transform="matrix(0.05,0,0,0.05,45.900000000000006,0)" xlink:href="#an"/><use transform="matrix(0.05,0,0,0.05,55.900000000000006,0)" xlink:href="#Q"/><use transform="matrix(0.05,0,0,0.05,65.9,0)" xlink:href="#Y"/><use transform="matrix(0.05,0,0,0.05,71.85000000000001,0)" xlink:href="#Q"/></g><g id="p"><use transform="matrix(0.05,0,0,0.05,0,0)" xlink:href="#an"/><use transform="matrix(0.05,0,0,0.05,10,0)" xlink:href="#Q"/><use transform="matrix(0.05,0,0,0.05,20,0)" xlink:href="#Y"/><use transform="matrix(0.05,0,0,0.05,25.950000000000003,0)" xlink:href="#Q"/></g><g id="q"><use transform="matrix(0.04938271604938272,0,0,0.04938271604938272,0,0)" xlink:href="#T"/><use transform="matrix(0.04938271604938272,0,0,0.04938271604938272,9.876543209876544,0)" xlink:href="#U"/><use transform="matrix(0.04938271604938272,0,0,0.04938271604938272,15.753086419753087,0)" xlink:href="#ag"/><use transform="matrix(0.04938271604938272,0,0,0.04938271604938272,25.629629629629633,0)" xlink:href="#T"/><use transform="matrix(0.04938271604938272,0,0,0.04938271604938272,35.50617283950618,0)" xlink:href="#B"/><use transform="matrix(0.04938271604938272,0,0,0.04938271604938272,45.38271604938272,0)" xlink:href="#U"/><use transform="matrix(0.04938271604938272,0,0,0.04938271604938272,51.25925925925927,0)" xlink:href="#V"/><use transform="matrix(0.04938271604938272,0,0,0.04938271604938272,56.19753086419754,0)" xlink:href="#ai"/></g><path fill="#979ea8" d="M101-234c-31-9-42 10-38 44h38v23H63V0H32v-167H5v-23h27c-7-52 17-82 69-68v24" id="ao"/><g id="r"><use transform="matrix(0.04938271604938272,0,0,0.04938271604938272,0,0)" xlink:href="#ae"/><use transform="matrix(0.04938271604938272,0,0,0.04938271604938272,9.876543209876544,0)" xlink:href="#B"/><use transform="matrix(0.04938271604938272,0,0,0.04938271604938272,19.75308641975309,0)" xlink:href="#ao"/><use transform="matrix(0.04938271604938272,0,0,0.04938271604938272,24.69135802469136,0)" xlink:href="#af"/><use transform="matrix(0.04938271604938272,0,0,0.04938271604938272,28.592592592592595,0)" xlink:href="#y"/><use transform="matrix(0.04938271604938272,0,0,0.04938271604938272,38.46913580246914,0)" xlink:href="#B"/><use transform="matrix(0.04938271604938272,0,0,0.04938271604938272,48.345679012345684,0)" xlink:href="#ae"/></g><path fill="#979ea8" d="M206 0h-36l-40-164L89 0H53L-1-190h32L70-26l43-164h34l41 164 42-164h31" id="ap"/><g id="s"><use transform="matrix(0.04938271604938272,0,0,0.04938271604938272,0,0)" xlink:href="#B"/><use transform="matrix(0.04938271604938272,0,0,0.04938271604938272,9.876543209876544,0)" xlink:href="#ac"/><use transform="matrix(0.04938271604938272,0,0,0.04938271604938272,13.777777777777779,0)" xlink:href="#S"/><use transform="matrix(0.04938271604938272,0,0,0.04938271604938272,22.666666666666668,0)" xlink:href="#B"/><use transform="matrix(0.04938271604938272,0,0,0.04938271604938272,32.543209876543216,0)" xlink:href="#ap"/><use transform="matrix(0.04938271604938272,0,0,0.04938271604938272,45.33333333333334,0)" xlink:href="#R"/><use transform="matrix(0.04938271604938272,0,0,0.04938271604938272,55.209876543209894,0)" xlink:href="#B"/><use transform="matrix(0.04938271604938272,0,0,0.04938271604938272,65.08641975308643,0)" xlink:href="#U"/><use transform="matrix(0.04938271604938272,0,0,0.04938271604938272,70.96296296296298,0)" xlink:href="#B"/></g><path fill="#333" d="M195 0l-88-114-31 24V0H24v-248h52v113l112-113h60L142-143 257 0h-62" id="aq"/><path fill="#333" d="M185-48c-13 30-37 53-82 52C43 2 14-33 14-96s30-98 90-98c62 0 83 45 84 108H66c0 31 8 55 39 56 18 0 30-7 34-22zm-45-69c5-46-57-63-70-21-2 6-4 13-4 21h74" id="ar"/><path fill="#333" d="M123 10C108 53 80 86 19 72V37c35 8 53-11 59-39L3-190h52l48 148c12-52 28-100 44-148h51" id="as"/><g id="t"><use transform="matrix(0.06172839506172839,0,0,0.06172839506172839,0,0)" xlink:href="#aq"/><use transform="matrix(0.06172839506172839,0,0,0.06172839506172839,15.987654320987653,0)" xlink:href="#ar"/><use transform="matrix(0.06172839506172839,0,0,0.06172839506172839,28.333333333333332,0)" xlink:href="#as"/><path fill="#333" d="M-1.1 1.2h42.9V3.5H-1.1z"/></g><g id="u"><use transform="matrix(0.05,0,0,0.05,0,0)" xlink:href="#af"/><use transform="matrix(0.05,0,0,0.05,3.95,0)" xlink:href="#S"/></g><g id="v"><use transform="matrix(0.05,0,0,0.05,0,0)" xlink:href="#y"/><use transform="matrix(0.05,0,0,0.05,10,0)" xlink:href="#z"/><use transform="matrix(0.05,0,0,0.05,20,0)" xlink:href="#A"/><use transform="matrix(0.05,0,0,0.05,34.95,0)" xlink:href="#B"/></g><g id="w"><use transform="matrix(0.05,0,0,0.05,0,0)" xlink:href="#ao"/><use transform="matrix(0.05,0,0,0.05,5,0)" xlink:href="#ag"/><use transform="matrix(0.05,0,0,0.05,15,0)" xlink:href="#U"/></g><g id="x"><use transform="matrix(0.05,0,0,0.05,0,0)" xlink:href="#C"/><use transform="matrix(0.05,0,0,0.05,5,0)" xlink:href="#F"/><use transform="matrix(0.05,0,0,0.05,12,0)" xlink:href="#E"/><use transform="matrix(0.05,0,0,0.05,17,0)" xlink:href="#E"/><use transform="matrix(0.05,0,0,0.05,22,0)" xlink:href="#D"/><use transform="matrix(0.05,0,0,0.05,32,0)" xlink:href="#G"/></g></defs></g></svg>