<svg xmlns="http://www.w3.org/2000/svg" xmlns:xlink="http://www.w3.org/1999/xlink" xmlns:lucid="lucid" width="1209.36" height="509.36"><g transform="translate(269.8455380369374 -71.79645946417094)" lucid:page-tab-id="HioGO9bThH_U"><path d="M-500 0h1500v1000H-500z" fill="#fff"/><path d="M-84 147.63c0 30.56-37.02 55.33-82.68 55.33-45.65 0-82.67-24.77-82.67-55.33s37.02-55.33 82.67-55.33c45.66 0 82.67 24.77 82.67 55.33z" stroke="#3a414a" fill="#fff"/><use xlink:href="#a" transform="matrix(1,0,0,1,-244.3455380369374,97.29645946417116) translate(56.517345679012344 43.02777777777778)"/><use xlink:href="#b" transform="matrix(1,0,0,1,-244.3455380369374,97.29645946417116) translate(39.264259259259255 69.69444444444446)"/><path d="M303.1 326.98h-43.73l-.88.06-.85.2-.8.34-.73.45-.66.56-.56.64-.45.74-.33.8-.2.84-.07.87v116.08h-1V332.45l.08-1 .24-.98.4-.95.52-.87.66-.77.77-.67.87-.52.94-.4 1-.23 1-.07h43.76zm47.88-13.18h-1V203.96h1z" stroke="#3a414a" stroke-width=".05" fill="#3a414a"/><path d="M350.5 203.46h.5v.52h-1v-.53z" fill="#3a414a"/><path d="M350.5 203.44l.5-.02v.58h-1.04v-.58zm-.5.5h.96v-.47l-.47.02-.5-.03zM263.96 431.54l-10.6 17.95-10.62-17.96.86-.5 9.75 16.48 9.75-16.48z" stroke="#3a414a" stroke-width=".05" fill="#3a414a"/><use xlink:href="#c" transform="matrix(1,0,0,1,303.1026300944448,313.80043492405724) translate(0 14.222222222222223)"/><path d="M433.15 147.63c0 30.56-37 55.33-82.66 55.33-45.67 0-82.68-24.77-82.68-55.33s37-55.33 82.67-55.33c45.64 0 82.65 24.77 82.65 55.33z" stroke="#3a414a" fill="#dfe3e8"/><use xlink:href="#d" transform="matrix(1,0,0,1,272.8186794771608,97.29645946417094) translate(56.425925925925924 55.65277777777778)"/><path d="M266.82 147.63h-4.86m-4.86 0h-9.72m-4.85 0h-9.72m-4.85 0h-9.72m-4.86 0h-9.72m-4.85 0h-9.72m-4.86 0h-9.72m-4.86 0h-9.7m-4.87 0h-9.72m-4.86 0h-9.73m-4.86 0h-9.7m-4.86 0h-9.72m-4.86 0h-9.7m-4.85 0h-9.7m-4.83 0h-9.7m-4.85 0h-9.7m-4.84 0h-9.7m-4.84 0h-9.7m-4.84 0H-.2m-4.84 0h-9.7m-4.85 0h-9.68m-4.85 0h-9.7m-4.84 0h-9.7m-4.84 0h-9.7m-4.85 0h-4.85" stroke="#3a414a" fill="none"/><path d="M267.32 147.63v.5h-.5v-1h.5z" stroke="#3a414a" stroke-width=".05" fill="#3a414a"/><path d="M-65.3 137.45l-17.23 10.18 17.22 10.18" stroke="#3a414a" fill="none"/><path d="M141.7 505.32c0 30.56-37.03 55.33-82.68 55.33-45.66 0-82.67-24.77-82.67-55.33S13.35 450 59.02 450c45.65 0 82.66 24.76 82.66 55.32z" stroke="#3a414a" fill="#dfe3e8"/><use xlink:href="#e" transform="matrix(1,0,0,1,-18.647858232357805,454.9863164408902) translate(46.54938271604939 55.65277777777778)"/><path d="M-52.65 505.32c0 30.56-37 55.33-82.67 55.33-45.65 0-82.66-24.77-82.66-55.33s37-55.33 82.66-55.33 82.67 24.76 82.67 55.32z" stroke="#3a414a" fill="#dfe3e8"/><use xlink:href="#f" transform="matrix(1,0,0,1,-212.9811915656913,454.9863164408902) translate(49.63580246913581 55.65277777777778)"/><path d="M919.02 505.32c0 30.56-37 55.33-82.67 55.33-45.65 0-82.67-24.77-82.67-55.33S790.7 450 836.35 450c45.66 0 82.67 24.76 82.67 55.32z" stroke="#3a414a" fill="#dfe3e8"/><use xlink:href="#g" transform="matrix(1,0,0,1,758.6854751009762,454.9863164408902) translate(47.16666666666667 55.65277777777778)"/><path d="M336.02 505.32c0 30.56-37 55.33-82.67 55.33-45.65 0-82.66-24.77-82.66-55.33s37-55.33 82.65-55.33c45.66 0 82.67 24.76 82.67 55.32z" stroke="#3a414a" fill="#dfe3e8"/><use xlink:href="#h" transform="matrix(1,0,0,1,175.68547510097562,454.9863164408902) translate(50.28395061728395 55.65277777777778)"/><path d="M530.35 505.32c0 30.56-37 55.33-82.67 55.33-45.65 0-82.66-24.77-82.66-55.33s37-55.33 82.67-55.33c45.64 0 82.65 24.76 82.65 55.32z" stroke="#3a414a" fill="#dfe3e8"/><use xlink:href="#i" transform="matrix(1,0,0,1,370.0188084343091,454.9863164408902) translate(39.75925925925926 55.65277777777778)"/><path d="M724.68 505.32c0 30.56-37 55.33-82.66 55.33s-82.67-24.77-82.67-55.33 37-55.33 82.67-55.33c45.65 0 82.66 24.76 82.66 55.32z" stroke="#3a414a" fill="#dfe3e8"/><use xlink:href="#j" transform="matrix(1,0,0,1,564.3521417676425,454.9863164408902) translate(39.75925925925925 55.65277777777778)"/><path d="M303.1 326.98H65.04l-.88.06-.84.2-.8.34-.73.45-.67.56-.56.64-.45.74-.33.8-.2.84-.08.87v116.08h-1V332.45l.08-1 .23-.98.4-.95.53-.87.66-.77.78-.67.87-.52.94-.4 1-.23 1-.07h238.1zm47.88-13.18h-1V203.96h1z" stroke="#3a414a" stroke-width=".05" fill="#3a414a"/><path d="M350.5 203.46h.5v.52h-1v-.53z" fill="#3a414a"/><path d="M350.5 203.44l.5-.02v.58h-1.04v-.58zm-.5.5h.96v-.47l-.47.02-.5-.03zM69.63 431.54l-10.6 17.95-10.62-17.96.87-.5 9.75 16.48 9.75-16.48z" stroke="#3a414a" stroke-width=".05" fill="#3a414a"/><path d="M303.1 326.98h-432.4l-.88.06-.83.2-.8.34-.75.45-.65.56-.56.64-.45.74-.34.8-.2.84-.07.87v116.08h-1V332.45l.06-1 .24-.98.4-.95.53-.87.66-.77.76-.67.87-.52.95-.4 1-.23 1-.07H303.1zm47.88-13.18h-1V203.96h1z" stroke="#3a414a" stroke-width=".05" fill="#3a414a"/><path d="M350.5 203.46h.5v.52h-1v-.53z" fill="#3a414a"/><path d="M350.5 203.44l.5-.02v.58h-1.04v-.58zm-.5.5h.96v-.47l-.47.02-.5-.03zM-124.7 431.54l-10.6 17.95-10.63-17.96.87-.5 9.75 16.48 9.74-16.48z" stroke="#3a414a" stroke-width=".05" fill="#3a414a"/><path d="M441.7 325.98l1 .07 1 .24.94.38.87.53.78.68.67.77.53.87.4.95.23 1 .08.98v116.13h-1v-116.1l-.06-.87-.2-.82-.34-.8-.45-.74-.56-.65-.65-.57-.74-.45-.8-.33-.83-.2-.88-.07h-43.8v-1zM351 313.8h-1V203.96h1z" stroke="#3a414a" stroke-width=".05" fill="#3a414a"/><path d="M350.5 203.46h.5v.52h-1v-.53z" fill="#3a414a"/><path d="M350.5 203.44l.5-.02v.58h-1.04v-.58zm-.5.5h.96v-.47l-.47.02-.5-.03zM458.3 431.54l-10.62 17.95-10.6-17.96.86-.5 9.75 16.48 9.74-16.48z" stroke="#3a414a" stroke-width=".05" fill="#3a414a"/><path d="M636.04 325.98l1 .07 1 .24.93.38.87.53.78.68.66.77.53.87.4.95.24 1 .08.98v116.13h-1v-116.1l-.07-.87-.2-.82-.33-.8-.45-.74-.56-.65-.65-.57-.74-.45-.78-.33-.84-.2-.88-.07H397.87v-1zM351 313.8h-1V203.96h1z" stroke="#3a414a" stroke-width=".05" fill="#3a414a"/><path d="M350.5 203.46h.5v.52h-1v-.53z" fill="#3a414a"/><path d="M350.5 203.44l.5-.02v.58h-1.04v-.58zm-.5.5h.96v-.47l-.47.02-.5-.03zM652.63 431.54l-10.6 17.95-10.62-17.96.87-.5 9.75 16.48 9.75-16.48z" stroke="#3a414a" stroke-width=".05" fill="#3a414a"/><path d="M830.37 325.98l1 .07 1 .24.93.38.87.53.78.68.66.77.54.87.4.95.23 1 .08.98v116.13h-1v-116.1l-.07-.87-.2-.82-.33-.8-.45-.74-.56-.65-.66-.57-.73-.45-.8-.33-.84-.2-.87-.07H397.87v-1zm-479.4-12.18h-1V203.96h1z" stroke="#3a414a" stroke-width=".05" fill="#3a414a"/><path d="M350.5 203.46h.5v.52h-1v-.53z" fill="#3a414a"/><path d="M350.5 203.44l.5-.02v.58h-1.04v-.58zm-.5.5h.96v-.47l-.47.02-.5-.03zM846.96 431.54l-10.6 17.95-10.62-17.96.86-.5 9.75 16.48 9.75-16.48z" stroke="#3a414a" stroke-width=".05" fill="#3a414a"/><path d="M-166.13 453v-5.2m0-5.17v-10.35m0-5.17v-10.35m0-5.17v-10.36m0-5.17V385.7m0-5.18v-10.36m0-5.17v-10.37m0-5.17V339.1m0-5.17v-5.25l-.03-.05-.02-.03-.03-.04-.04-.03-.04-.02h-.04l-.04-.02h-.09l-.04-.02h-.03l-.04-.04-.03-.02-.03-.04-.02-.03v-.04l-.03-.06v-5.2m0-5.16v-10.32m0-5.16v-10.3m0-5.18v-10.3m0-5.17v-10.32m0-5.16v-10.32m0-5.16v-10.33m0-5.16v-10.3m0-5.17v-5.16" stroke="#3a414a" fill="none"/><path d="M-165.63 453.35l-1 .28v-.65h1z" stroke="#3a414a" stroke-width=".05" fill="#3a414a"/><path d="M-156.5 221.66l-10.18-17.2-10.18 17.2" stroke="#3a414a" fill="none"/><defs><path fill="#3a414a" d="M135-143c-3-34-86-38-87 0 15 53 115 12 119 90S17 21 10-45l28-5c4 36 97 45 98 0-10-56-113-15-118-90-4-57 82-63 122-42 12 7 21 19 24 35" id="k"/><path fill="#3a414a" d="M85-194c31 0 48 13 60 33l-1-100h32l1 261h-30c-2-10 0-23-3-31C134-8 116 4 85 4 32 4 16-35 15-94c0-66 23-100 70-100zm9 24c-40 0-46 34-46 75 0 40 6 74 45 74 42 0 51-32 51-76 0-42-9-74-50-73" id="l"/><path fill="#3a414a" d="M100-194c62-1 85 37 85 99 1 63-27 99-86 99S16-35 15-95c0-66 28-99 85-99zM99-20c44 1 53-31 53-75 0-43-8-75-51-75s-53 32-53 75 10 74 51 75" id="m"/><path fill="#3a414a" d="M33-154v-36h34v36H33zM33 0v-36h34V0H33" id="n"/><g id="a"><use transform="matrix(0.06172839506172839,0,0,0.06172839506172839,0,0)" xlink:href="#k"/><use transform="matrix(0.06172839506172839,0,0,0.06172839506172839,11.11111111111111,0)" xlink:href="#l"/><use transform="matrix(0.06172839506172839,0,0,0.06172839506172839,23.45679012345679,0)" xlink:href="#m"/><use transform="matrix(0.06172839506172839,0,0,0.06172839506172839,35.80246913580247,0)" xlink:href="#n"/></g><path fill="#3a414a" d="M30-248c118-7 216 8 213 122C240-48 200 0 122 0H30v-248zM63-27c89 8 146-16 146-99s-60-101-146-95v194" id="o"/><path fill="#3a414a" d="M141-36C126-15 110 5 73 4 37 3 15-17 15-53c-1-64 63-63 125-63 3-35-9-54-41-54-24 1-41 7-42 31l-33-3c5-37 33-52 76-52 45 0 72 20 72 64v82c-1 20 7 32 28 27v20c-31 9-61-2-59-35zM48-53c0 20 12 33 32 33 41-3 63-29 60-74-43 2-92-5-92 41" id="p"/><path fill="#3a414a" d="M59-47c-2 24 18 29 38 22v24C64 9 27 4 27-40v-127H5v-23h24l9-43h21v43h35v23H59v120" id="q"/><path fill="#3a414a" d="M100-194c63 0 86 42 84 106H49c0 40 14 67 53 68 26 1 43-12 49-29l28 8c-11 28-37 45-77 45C44 4 14-33 15-96c1-61 26-98 85-98zm52 81c6-60-76-77-97-28-3 7-6 17-6 28h103" id="r"/><g id="b"><use transform="matrix(0.06172839506172839,0,0,0.06172839506172839,0,0)" xlink:href="#o"/><use transform="matrix(0.06172839506172839,0,0,0.06172839506172839,15.987654320987653,0)" xlink:href="#p"/><use transform="matrix(0.06172839506172839,0,0,0.06172839506172839,28.333333333333332,0)" xlink:href="#q"/><use transform="matrix(0.06172839506172839,0,0,0.06172839506172839,34.50617283950617,0)" xlink:href="#p"/><use transform="matrix(0.06172839506172839,0,0,0.06172839506172839,46.85185185185185,0)" xlink:href="#k"/><use transform="matrix(0.06172839506172839,0,0,0.06172839506172839,57.96296296296296,0)" xlink:href="#r"/><use transform="matrix(0.06172839506172839,0,0,0.06172839506172839,70.30864197530865,0)" xlink:href="#q"/></g><path fill="#333" d="M135-143c-3-34-86-38-87 0 15 53 115 12 119 90S17 21 10-45l28-5c4 36 97 45 98 0-10-56-113-15-118-90-4-57 82-63 122-42 12 7 21 19 24 35" id="s"/><path fill="#333" d="M85-194c31 0 48 13 60 33l-1-100h32l1 261h-30c-2-10 0-23-3-31C134-8 116 4 85 4 32 4 16-35 15-94c0-66 23-100 70-100zm9 24c-40 0-46 34-46 75 0 40 6 74 45 74 42 0 51-32 51-76 0-42-9-74-50-73" id="t"/><path fill="#333" d="M100-194c62-1 85 37 85 99 1 63-27 99-86 99S16-35 15-95c0-66 28-99 85-99zM99-20c44 1 53-31 53-75 0-43-8-75-51-75s-53 32-53 75 10 74 51 75" id="u"/><path fill="#333" d="M33-154v-36h34v36H33zM33 0v-36h34V0H33" id="v"/><path fill="#333" d="M106-169C34-169 62-67 57 0H25v-261h32l-1 103c12-21 28-36 61-36 89 0 53 116 60 194h-32v-121c2-32-8-49-39-48" id="w"/><path fill="#333" d="M141-36C126-15 110 5 73 4 37 3 15-17 15-53c-1-64 63-63 125-63 3-35-9-54-41-54-24 1-41 7-42 31l-33-3c5-37 33-52 76-52 45 0 72 20 72 64v82c-1 20 7 32 28 27v20c-31 9-61-2-59-35zM48-53c0 20 12 33 32 33 41-3 63-29 60-74-43 2-92-5-92 41" id="x"/><path fill="#333" d="M30-248c87 1 191-15 191 75 0 78-77 80-158 76V0H30v-248zm33 125c57 0 124 11 124-50 0-59-68-47-124-48v98" id="y"/><path fill="#333" d="M114-163C36-179 61-72 57 0H25l-1-190h30c1 12-1 29 2 39 6-27 23-49 58-41v29" id="z"/><path fill="#333" d="M59-47c-2 24 18 29 38 22v24C64 9 27 4 27-40v-127H5v-23h24l9-43h21v43h35v23H59v120" id="A"/><g id="c"><use transform="matrix(0.04938271604938272,0,0,0.04938271604938272,0,0)" xlink:href="#s"/><use transform="matrix(0.04938271604938272,0,0,0.04938271604938272,8.88888888888889,0)" xlink:href="#t"/><use transform="matrix(0.04938271604938272,0,0,0.04938271604938272,18.765432098765434,0)" xlink:href="#u"/><use transform="matrix(0.04938271604938272,0,0,0.04938271604938272,28.641975308641978,0)" xlink:href="#v"/><use transform="matrix(0.04938271604938272,0,0,0.04938271604938272,33.580246913580254,0)" xlink:href="#w"/><use transform="matrix(0.04938271604938272,0,0,0.04938271604938272,43.4567901234568,0)" xlink:href="#x"/><use transform="matrix(0.04938271604938272,0,0,0.04938271604938272,53.333333333333336,0)" xlink:href="#s"/><use transform="matrix(0.04938271604938272,0,0,0.04938271604938272,62.22222222222223,0)" xlink:href="#y"/><use transform="matrix(0.04938271604938272,0,0,0.04938271604938272,74.07407407407408,0)" xlink:href="#x"/><use transform="matrix(0.04938271604938272,0,0,0.04938271604938272,83.95061728395062,0)" xlink:href="#z"/><use transform="matrix(0.04938271604938272,0,0,0.04938271604938272,89.82716049382717,0)" xlink:href="#A"/></g><path fill="#3a414a" d="M190 0L58-211 59 0H30v-248h39L202-35l-2-213h31V0h-41" id="B"/><path fill="#3a414a" d="M185-189c-5-48-123-54-124 2 14 75 158 14 163 119 3 78-121 87-175 55-17-10-28-26-33-46l33-7c5 56 141 63 141-1 0-78-155-14-162-118-5-82 145-84 179-34 5 7 8 16 11 25" id="C"/><path fill="#3a414a" d="M30 0v-248h33v221h125V0H30" id="D"/><g id="d"><use transform="matrix(0.06172839506172839,0,0,0.06172839506172839,0,0)" xlink:href="#B"/><use transform="matrix(0.06172839506172839,0,0,0.06172839506172839,15.987654320987653,0)" xlink:href="#C"/><use transform="matrix(0.06172839506172839,0,0,0.06172839506172839,30.80246913580247,0)" xlink:href="#D"/></g><path fill="#3a414a" d="M63-220v92h138v28H63V0H30v-248h175v28H63" id="E"/><path fill="#3a414a" d="M84 4C-5 8 30-112 23-190h32v120c0 31 7 50 39 49 72-2 45-101 50-169h31l1 190h-30c-1-10 1-25-2-33-11 22-28 36-60 37" id="F"/><path fill="#3a414a" d="M117-194c89-4 53 116 60 194h-32v-121c0-31-8-49-39-48C34-167 62-67 57 0H25l-1-190h30c1 10-1 24 2 32 11-22 29-35 61-36" id="G"/><g id="e"><use transform="matrix(0.06172839506172839,0,0,0.06172839506172839,0,0)" xlink:href="#E"/><use transform="matrix(0.06172839506172839,0,0,0.06172839506172839,13.518518518518517,0)" xlink:href="#p"/><use transform="matrix(0.06172839506172839,0,0,0.06172839506172839,25.864197530864196,0)" xlink:href="#F"/><use transform="matrix(0.06172839506172839,0,0,0.06172839506172839,38.20987654320987,0)" xlink:href="#G"/><use transform="matrix(0.06172839506172839,0,0,0.06172839506172839,50.55555555555555,0)" xlink:href="#p"/></g><path fill="#3a414a" d="M205 0l-28-72H64L36 0H1l101-248h38L239 0h-34zm-38-99l-47-123c-12 45-31 82-46 123h93" id="H"/><path fill="#3a414a" d="M24 0v-261h32V0H24" id="I"/><path fill="#3a414a" d="M177-190C167-65 218 103 67 71c-23-6-38-20-44-43l32-5c15 47 100 32 89-28v-30C133-14 115 1 83 1 29 1 15-40 15-95c0-56 16-97 71-98 29-1 48 16 59 35 1-10 0-23 2-32h30zM94-22c36 0 50-32 50-73 0-42-14-75-50-75-39 0-46 34-46 75s6 73 46 73" id="J"/><g id="f"><use transform="matrix(0.06172839506172839,0,0,0.06172839506172839,0,0)" xlink:href="#H"/><use transform="matrix(0.06172839506172839,0,0,0.06172839506172839,14.814814814814813,0)" xlink:href="#I"/><use transform="matrix(0.06172839506172839,0,0,0.06172839506172839,19.691358024691354,0)" xlink:href="#J"/><use transform="matrix(0.06172839506172839,0,0,0.06172839506172839,32.03703703703703,0)" xlink:href="#p"/><use transform="matrix(0.06172839506172839,0,0,0.06172839506172839,44.38271604938271,0)" xlink:href="#r"/></g><path fill="#3a414a" d="M30-248c87 1 191-15 191 75 0 78-77 80-158 76V0H30v-248zm33 125c57 0 124 11 124-50 0-59-68-47-124-48v98" id="K"/><g id="g"><use transform="matrix(0.06172839506172839,0,0,0.06172839506172839,0,0)" xlink:href="#K"/><use transform="matrix(0.06172839506172839,0,0,0.06172839506172839,14.814814814814813,0)" xlink:href="#I"/><use transform="matrix(0.06172839506172839,0,0,0.06172839506172839,19.691358024691354,0)" xlink:href="#p"/><use transform="matrix(0.06172839506172839,0,0,0.06172839506172839,32.03703703703703,0)" xlink:href="#G"/><use transform="matrix(0.06172839506172839,0,0,0.06172839506172839,44.38271604938271,0)" xlink:href="#q"/><use transform="matrix(0.06172839506172839,0,0,0.06172839506172839,50.55555555555555,0)" xlink:href="#k"/></g><path fill="#3a414a" d="M24-231v-30h32v30H24zM24 0v-190h32V0H24" id="L"/><g id="h"><use transform="matrix(0.06172839506172839,0,0,0.06172839506172839,0,0)" xlink:href="#E"/><use transform="matrix(0.06172839506172839,0,0,0.06172839506172839,13.518518518518517,0)" xlink:href="#F"/><use transform="matrix(0.06172839506172839,0,0,0.06172839506172839,25.864197530864196,0)" xlink:href="#G"/><use transform="matrix(0.06172839506172839,0,0,0.06172839506172839,38.20987654320987,0)" xlink:href="#J"/><use transform="matrix(0.06172839506172839,0,0,0.06172839506172839,50.55555555555555,0)" xlink:href="#L"/></g><path fill="#3a414a" d="M96-169c-40 0-48 33-48 73s9 75 48 75c24 0 41-14 43-38l32 2c-6 37-31 61-74 61-59 0-76-41-82-99-10-93 101-131 147-64 4 7 5 14 7 22l-32 3c-4-21-16-35-41-35" id="M"/><path fill="#3a414a" d="M106-169C34-169 62-67 57 0H25v-261h32l-1 103c12-21 28-36 61-36 89 0 53 116 60 194h-32v-121c2-32-8-49-39-48" id="N"/><g id="i"><use transform="matrix(0.06172839506172839,0,0,0.06172839506172839,0,0)" xlink:href="#D"/><use transform="matrix(0.06172839506172839,0,0,0.06172839506172839,12.345679012345679,0)" xlink:href="#L"/><use transform="matrix(0.06172839506172839,0,0,0.06172839506172839,17.22222222222222,0)" xlink:href="#M"/><use transform="matrix(0.06172839506172839,0,0,0.06172839506172839,28.333333333333332,0)" xlink:href="#N"/><use transform="matrix(0.06172839506172839,0,0,0.06172839506172839,40.67901234567901,0)" xlink:href="#r"/><use transform="matrix(0.06172839506172839,0,0,0.06172839506172839,53.02469135802469,0)" xlink:href="#G"/><use transform="matrix(0.06172839506172839,0,0,0.06172839506172839,65.37037037037037,0)" xlink:href="#k"/></g><path fill="#3a414a" d="M240 0l2-218c-23 76-54 145-80 218h-23L58-218 59 0H30v-248h44l77 211c21-75 51-140 76-211h43V0h-30" id="O"/><g id="j"><use transform="matrix(0.06172839506172839,0,0,0.06172839506172839,0,0)" xlink:href="#O"/><use transform="matrix(0.06172839506172839,0,0,0.06172839506172839,18.456790123456788,0)" xlink:href="#m"/><use transform="matrix(0.06172839506172839,0,0,0.06172839506172839,30.80246913580247,0)" xlink:href="#k"/><use transform="matrix(0.06172839506172839,0,0,0.06172839506172839,41.91358024691358,0)" xlink:href="#k"/><use transform="matrix(0.06172839506172839,0,0,0.06172839506172839,53.0246913580247,0)" xlink:href="#r"/><use transform="matrix(0.06172839506172839,0,0,0.06172839506172839,65.37037037037038,0)" xlink:href="#k"/></g></defs></g></svg>