<svg xmlns="http://www.w3.org/2000/svg" xmlns:xlink="http://www.w3.org/1999/xlink" xmlns:lucid="lucid" width="1114.61" height="206.04"><g transform="translate(164.57971104294393 -1435.2943262375372)" lucid:page-tab-id="HL~FUUcs325_"><path d="M-500 1000h1500v1000H-500z" fill="#fff"/><path d="M929.53 1532.84c0 30.56-37 55.33-82.67 55.33-45.65 0-82.66-24.77-82.66-55.33s37-55.34 82.66-55.34 82.67 24.78 82.67 55.34z" stroke="#3a414a" fill="#fff"/><use xlink:href="#a" transform="matrix(1,0,0,1,769.1969555708542,1482.503188001836) translate(8 55.65277777777778)"/><use xlink:href="#b" transform="matrix(1,0,0,1,769.1969555708542,1482.503188001836) translate(96.70370370370371 55.65277777777778)"/><path d="M21.25 1532.84c0 30.56-37 55.33-82.66 55.33-45.67 0-82.68-24.77-82.68-55.33s37-55.34 82.67-55.34c45.64 0 82.65 24.78 82.65 55.34z" stroke="#3a414a" fill="#e3fae3"/><use xlink:href="#c" transform="matrix(1,0,0,1,-139.07971104294393,1482.503188001836) translate(48.40123456790124 55.65277777777778)"/><path d="M637.1 1532.84c0 30.56-37 55.33-82.66 55.33s-82.67-24.77-82.67-55.33 37-55.34 82.67-55.34c45.65 0 82.66 24.78 82.66 55.34z" stroke="#3a414a" fill="#e3fae3"/><use xlink:href="#d" transform="matrix(1,0,0,1,476.7714000329217,1482.503188001836) translate(45.9320987654321 55.65277777777778)"/><path d="M344.68 1532.84c0 30.56-37 55.33-82.67 55.33-45.64 0-82.65-24.77-82.65-55.33s37-55.34 82.66-55.34c45.67 0 82.68 24.78 82.68 55.34z" stroke="#3a414a" fill="#e3fae3"/><use xlink:href="#e" transform="matrix(1,0,0,1,184.34584449498908,1482.5031880018362) translate(15.746913580246918 55.65277777777778)"/><use xlink:href="#f" transform="matrix(1,0,0,1,184.34584449498908,1482.5031880018362) translate(81.11728395061729 55.65277777777778)"/><path d="M78.1 1533.34H22.25v-1H78.1zm99.84 0H122.5v-1h55.44z" stroke="#3a414a" stroke-width=".05" fill="#3a414a"/><path d="M22.27 1533.34h-.53v-1h.53z" fill="#3a414a"/><path d="M22.3 1533.36h-.6l.03-.52-.02-.53h.6zm-.54-1l.02.48-.02.47h.48v-.94zM178.84 1532.84l-17.94 10.6-.5-.85 16.48-9.76-16.5-9.75.52-.88z" stroke="#3a414a" stroke-width=".05" fill="#3a414a"/><use xlink:href="#g" transform="matrix(1,0,0,1,78.10220237160061,1522.1698546685025) translate(0 14.222222222222223)"/><path d="M368.77 1533.34h-23.1v-1h23.1zm101.6 0h-22.7v-1h22.7z" stroke="#3a414a" stroke-width=".05" fill="#3a414a"/><path d="M345.7 1533.34h-.54l.02-.5v-.5h.5z" fill="#3a414a"/><path d="M345.72 1533.36h-.58v-1.05h.58zm-.53-1v.95h.47v-.94zM471.27 1532.84l-17.94 10.6-.5-.85 16.48-9.76-16.48-9.75.5-.88z" stroke="#3a414a" stroke-width=".05" fill="#3a414a"/><use xlink:href="#h" transform="matrix(1,0,0,1,368.7684986502741,1522.1698546685027) translate(0.005000000000002558 14.222222222222223)"/><use xlink:href="#i" transform="matrix(1,0,0,1,368.7684986502741,1522.1698546685027) translate(17.733395061728398 14.222222222222223)"/><use xlink:href="#j" transform="matrix(1,0,0,1,368.7684986502741,1522.1698546685027) translate(60.153148148148155 14.222222222222223)"/><path d="M554.94 1622.65l.07.88.2.84.34.8.45.73.55.66.66.56.74.45.8.33.84.2.88.07h14.63v1H560.4l-1-.08-1-.25-.93-.4-.88-.52-.78-.66-.66-.78-.53-.88-.4-.94-.23-1-.08-1v-33.1h1zm77.68-63.4l1 .24.94.38.87.53.77.68.66.77.54.87.4.94.23 1 .08 1v57.03l-.07 1-.24.98-.4.94-.53.87-.67.77-.77.66-.87.53-.95.4-.98.23-1 .07H611.6v-1h20l.88-.07.84-.2.8-.33.74-.45.65-.56.55-.66.45-.73.33-.8.2-.84.08-.88v-56.96l-.06-.9-.2-.83-.34-.8-.45-.73-.56-.65-.66-.57-.74-.45-.8-.34-.83-.2-.88-.07h-3.73v-1h3.75z" stroke="#3a414a" stroke-width=".05" fill="#3a414a"/><path d="M627.88 1560.17h-.93l.83-1z" fill="#3a414a"/><path d="M627.9 1560.2h-1l.9-1.1zm-.9-.05h.85l-.1-.9zM565.05 1606.6l-.86.52-9.76-16.48-9.75 16.48-.87-.5 10.6-17.95z" stroke="#3a414a" stroke-width=".05" fill="#3a414a"/><use xlink:href="#k" transform="matrix(1,0,0,1,575.0864197530864,1618.0034019896452) translate(0 14.222222222222223)"/><path d="M650.65 1533.34H638.1v-1h12.55zm112.14 0h-28.3v-1h28.3z" stroke="#3a414a" stroke-width=".05" fill="#3a414a"/><path d="M638.12 1533.34h-.53v-1h.52z" fill="#3a414a"/><path d="M638.14 1533.36h-.58l.02-.52v-.53h.56zm-.52-1v.95h.47v-.94zM763.7 1532.84l-17.95 10.6-.5-.85 16.48-9.76-16.5-9.75.52-.88z" stroke="#3a414a" stroke-width=".05" fill="#3a414a"/><use xlink:href="#l" transform="matrix(1,0,0,1,650.6458327112485,1522.1698546685025) translate(0 14.222222222222223)"/><path d="M493.08 1451.38l1 .24.94.4.87.52.76.66.66.78.54.87.4.94.23 1 .06.98v33.52h-1v-33.48l-.06-.88-.2-.84-.34-.8-.45-.73-.55-.65-.65-.57-.74-.45-.8-.33-.83-.2-.88-.07h-65.57v-1h65.6zm-103.1.92H324.4l-.87.07-.84.2-.8.33-.74.45-.66.57-.56.65-.45.74-.34.8-.2.84-.07.88v33.07h-1v-33.12l.07-1 .24-1 .4-.93.53-.87.66-.78.77-.66.87-.53.94-.38 1-.24 1-.08h65.6z" stroke="#3a414a" stroke-width=".05" fill="#3a414a"/><path d="M498.56 1491.48l-1 .64v-.83h1z" fill="#3a414a"/><path d="M498.6 1491.5l-1.06.67v-.9h1.05zm-1-.18v.76l.94-.6v-.16zM329 1473.86l-10.6 17.94-10.62-17.94.86-.5 9.75 16.48 9.74-16.5z" stroke="#3a414a" stroke-width=".05" fill="#3a414a"/><use xlink:href="#k" transform="matrix(1,0,0,1,389.98096718618626,1441.1358551894773) translate(0 14.222222222222223)"/><path d="M207.6 1447.54l1 .24.94.4.87.52.78.66.67.78.53.87.4.95.23 1 .1 1v33.5h-1V1454l-.08-.88-.2-.84-.33-.8-.46-.73-.56-.66-.66-.56-.74-.44-.8-.33-.83-.2-.88-.07h-59.93v-1h59.97zm-153.65.92H-5.97l-.88.07-.84.2-.8.33-.72.45-.66.57-.56.66-.45.73-.32.8-.2.84-.07.88v33.07h-1v-33.1l.1-1 .23-1 .4-.94.52-.86.66-.78.8-.66.86-.53.94-.4 1-.23 1-.08h59.95z" stroke="#3a414a" stroke-width=".05" fill="#3a414a"/><path d="M213.1 1487.72l-1 .48v-.75h1z" fill="#3a414a"/><path d="M213.1 1487.73l-1.04.5v-.8h1.05zm-1-.26v.7l.96-.47v-.23zM-1.38 1470.02l-10.6 17.94-10.62-17.94.86-.5L-12 1486l9.76-16.5z" stroke="#3a414a" stroke-width=".05" fill="#3a414a"/><g><use xlink:href="#m" transform="matrix(1,0,0,1,53.95252034018425,1437.2943262375372) translate(0 14.222222222222223)"/><use xlink:href="#n" transform="matrix(1,0,0,1,53.95252034018425,1437.2943262375372) translate(22.666666666666668 14.222222222222223)"/><use xlink:href="#o" transform="matrix(1,0,0,1,53.95252034018425,1437.2943262375372) translate(72 14.222222222222223)"/></g><defs><path fill="#3a414a" d="M212-179c-10-28-35-45-73-45-59 0-87 40-87 99 0 60 29 101 89 101 43 0 62-24 78-52l27 14C228-24 195 4 139 4 59 4 22-46 18-125c-6-104 99-153 187-111 19 9 31 26 39 46" id="p"/><path fill="#3a414a" d="M114-163C36-179 61-72 57 0H25l-1-190h30c1 12-1 29 2 39 6-27 23-49 58-41v29" id="q"/><path fill="#3a414a" d="M100-194c63 0 86 42 84 106H49c0 40 14 67 53 68 26 1 43-12 49-29l28 8c-11 28-37 45-77 45C44 4 14-33 15-96c1-61 26-98 85-98zm52 81c6-60-76-77-97-28-3 7-6 17-6 28h103" id="r"/><path fill="#3a414a" d="M141-36C126-15 110 5 73 4 37 3 15-17 15-53c-1-64 63-63 125-63 3-35-9-54-41-54-24 1-41 7-42 31l-33-3c5-37 33-52 76-52 45 0 72 20 72 64v82c-1 20 7 32 28 27v20c-31 9-61-2-59-35zM48-53c0 20 12 33 32 33 41-3 63-29 60-74-43 2-92-5-92 41" id="s"/><path fill="#3a414a" d="M59-47c-2 24 18 29 38 22v24C64 9 27 4 27-40v-127H5v-23h24l9-43h21v43h35v23H59v120" id="t"/><path fill="#3a414a" d="M24-231v-30h32v30H24zM24 0v-190h32V0H24" id="u"/><path fill="#3a414a" d="M108 0H70L1-190h34L89-25l56-165h34" id="v"/><g id="a"><use transform="matrix(0.06172839506172839,0,0,0.06172839506172839,0,0)" xlink:href="#p"/><use transform="matrix(0.06172839506172839,0,0,0.06172839506172839,15.987654320987653,0)" xlink:href="#q"/><use transform="matrix(0.06172839506172839,0,0,0.06172839506172839,23.333333333333332,0)" xlink:href="#r"/><use transform="matrix(0.06172839506172839,0,0,0.06172839506172839,35.67901234567901,0)" xlink:href="#s"/><use transform="matrix(0.06172839506172839,0,0,0.06172839506172839,48.02469135802469,0)" xlink:href="#t"/><use transform="matrix(0.06172839506172839,0,0,0.06172839506172839,54.19753086419753,0)" xlink:href="#u"/><use transform="matrix(0.06172839506172839,0,0,0.06172839506172839,59.074074074074076,0)" xlink:href="#v"/><use transform="matrix(0.06172839506172839,0,0,0.06172839506172839,70.18518518518519,0)" xlink:href="#r"/></g><path fill="#3a414a" d="M266 0h-40l-56-210L115 0H75L2-248h35L96-30l15-64 43-154h32l59 218 59-218h35" id="w"/><path fill="#3a414a" d="M100-194c62-1 85 37 85 99 1 63-27 99-86 99S16-35 15-95c0-66 28-99 85-99zM99-20c44 1 53-31 53-75 0-43-8-75-51-75s-53 32-53 75 10 74 51 75" id="x"/><path fill="#3a414a" d="M143 0L79-87 56-68V0H24v-261h32v163l83-92h37l-77 82L181 0h-38" id="y"/><g id="b"><use transform="matrix(0.06172839506172839,0,0,0.06172839506172839,0,0)" xlink:href="#w"/><use transform="matrix(0.06172839506172839,0,0,0.06172839506172839,20.493827160493826,0)" xlink:href="#x"/><use transform="matrix(0.06172839506172839,0,0,0.06172839506172839,32.839506172839506,0)" xlink:href="#q"/><use transform="matrix(0.06172839506172839,0,0,0.06172839506172839,40.18518518518518,0)" xlink:href="#y"/></g><path fill="#3a414a" d="M127-220V0H93v-220H8v-28h204v28h-85" id="z"/><path fill="#3a414a" d="M141 0L90-78 38 0H4l68-98-65-92h35l48 74 47-74h35l-64 92 68 98h-35" id="A"/><path fill="#3a414a" d="M117-194c89-4 53 116 60 194h-32v-121c0-31-8-49-39-48C34-167 62-67 57 0H25l-1-190h30c1 10-1 24 2 32 11-22 29-35 61-36" id="B"/><g id="c"><use transform="matrix(0.06172839506172839,0,0,0.06172839506172839,0,0)" xlink:href="#z"/><use transform="matrix(0.06172839506172839,0,0,0.06172839506172839,11.049382716049381,0)" xlink:href="#s"/><use transform="matrix(0.06172839506172839,0,0,0.06172839506172839,23.39506172839506,0)" xlink:href="#A"/><use transform="matrix(0.06172839506172839,0,0,0.06172839506172839,34.50617283950617,0)" xlink:href="#x"/><use transform="matrix(0.06172839506172839,0,0,0.06172839506172839,46.85185185185185,0)" xlink:href="#B"/></g><path fill="#3a414a" d="M232-93c-1 65-40 97-104 97C67 4 28-28 28-90v-158h33c8 89-33 224 67 224 102 0 64-133 71-224h33v155" id="C"/><path fill="#3a414a" d="M135-143c-3-34-86-38-87 0 15 53 115 12 119 90S17 21 10-45l28-5c4 36 97 45 98 0-10-56-113-15-118-90-4-57 82-63 122-42 12 7 21 19 24 35" id="D"/><path fill="#3a414a" d="M177-190C167-65 218 103 67 71c-23-6-38-20-44-43l32-5c15 47 100 32 89-28v-30C133-14 115 1 83 1 29 1 15-40 15-95c0-56 16-97 71-98 29-1 48 16 59 35 1-10 0-23 2-32h30zM94-22c36 0 50-32 50-73 0-42-14-75-50-75-39 0-46 34-46 75s6 73 46 73" id="E"/><g id="d"><use transform="matrix(0.06172839506172839,0,0,0.06172839506172839,0,0)" xlink:href="#C"/><use transform="matrix(0.06172839506172839,0,0,0.06172839506172839,15.987654320987653,0)" xlink:href="#D"/><use transform="matrix(0.06172839506172839,0,0,0.06172839506172839,27.098765432098766,0)" xlink:href="#s"/><use transform="matrix(0.06172839506172839,0,0,0.06172839506172839,39.44444444444444,0)" xlink:href="#E"/><use transform="matrix(0.06172839506172839,0,0,0.06172839506172839,51.79012345679012,0)" xlink:href="#r"/></g><g id="e"><use transform="matrix(0.06172839506172839,0,0,0.06172839506172839,0,0)" xlink:href="#z"/><use transform="matrix(0.06172839506172839,0,0,0.06172839506172839,11.049382716049381,0)" xlink:href="#s"/><use transform="matrix(0.06172839506172839,0,0,0.06172839506172839,23.39506172839506,0)" xlink:href="#A"/><use transform="matrix(0.06172839506172839,0,0,0.06172839506172839,34.50617283950617,0)" xlink:href="#x"/><use transform="matrix(0.06172839506172839,0,0,0.06172839506172839,46.85185185185185,0)" xlink:href="#B"/></g><path fill="#3a414a" d="M190 0L58-211 59 0H30v-248h39L202-35l-2-213h31V0h-41" id="F"/><path fill="#3a414a" d="M210-169c-67 3-38 105-44 169h-31v-121c0-29-5-50-35-48C34-165 62-65 56 0H25l-1-190h30c1 10-1 24 2 32 10-44 99-50 107 0 11-21 27-35 58-36 85-2 47 119 55 194h-31v-121c0-29-5-49-35-48" id="G"/><g id="f"><use transform="matrix(0.06172839506172839,0,0,0.06172839506172839,0,0)" xlink:href="#F"/><use transform="matrix(0.06172839506172839,0,0,0.06172839506172839,15.987654320987653,0)" xlink:href="#s"/><use transform="matrix(0.06172839506172839,0,0,0.06172839506172839,28.333333333333332,0)" xlink:href="#G"/><use transform="matrix(0.06172839506172839,0,0,0.06172839506172839,46.79012345679012,0)" xlink:href="#r"/></g><path fill="#333" d="M117-194c89-4 53 116 60 194h-32v-121c0-31-8-49-39-48C34-167 62-67 57 0H25l-1-190h30c1 10-1 24 2 32 11-22 29-35 61-36" id="H"/><path fill="#333" d="M141-36C126-15 110 5 73 4 37 3 15-17 15-53c-1-64 63-63 125-63 3-35-9-54-41-54-24 1-41 7-42 31l-33-3c5-37 33-52 76-52 45 0 72 20 72 64v82c-1 20 7 32 28 27v20c-31 9-61-2-59-35zM48-53c0 20 12 33 32 33 41-3 63-29 60-74-43 2-92-5-92 41" id="I"/><path fill="#333" d="M210-169c-67 3-38 105-44 169h-31v-121c0-29-5-50-35-48C34-165 62-65 56 0H25l-1-190h30c1 10-1 24 2 32 10-44 99-50 107 0 11-21 27-35 58-36 85-2 47 119 55 194h-31v-121c0-29-5-49-35-48" id="J"/><path fill="#333" d="M100-194c63 0 86 42 84 106H49c0 40 14 67 53 68 26 1 43-12 49-29l28 8c-11 28-37 45-77 45C44 4 14-33 15-96c1-61 26-98 85-98zm52 81c6-60-76-77-97-28-3 7-6 17-6 28h103" id="K"/><g id="g"><use transform="matrix(0.04938271604938272,0,0,0.04938271604938272,0,0)" xlink:href="#H"/><use transform="matrix(0.04938271604938272,0,0,0.04938271604938272,9.876543209876544,0)" xlink:href="#I"/><use transform="matrix(0.04938271604938272,0,0,0.04938271604938272,19.75308641975309,0)" xlink:href="#J"/><use transform="matrix(0.04938271604938272,0,0,0.04938271604938272,34.51851851851852,0)" xlink:href="#K"/></g><path fill="#333" d="M24-231v-30h32v30H24zM24 0v-190h32V0H24" id="L"/><path fill="#333" d="M135-143c-3-34-86-38-87 0 15 53 115 12 119 90S17 21 10-45l28-5c4 36 97 45 98 0-10-56-113-15-118-90-4-57 82-63 122-42 12 7 21 19 24 35" id="M"/><g id="h"><use transform="matrix(0.04938271604938272,0,0,0.04938271604938272,0,0)" xlink:href="#L"/><use transform="matrix(0.04938271604938272,0,0,0.04938271604938272,3.901234567901235,0)" xlink:href="#M"/></g><path fill="#333" d="M96-169c-40 0-48 33-48 73s9 75 48 75c24 0 41-14 43-38l32 2c-6 37-31 61-74 61-59 0-76-41-82-99-10-93 101-131 147-64 4 7 5 14 7 22l-32 3c-4-21-16-35-41-35" id="N"/><path fill="#333" d="M59-47c-2 24 18 29 38 22v24C64 9 27 4 27-40v-127H5v-23h24l9-43h21v43h35v23H59v120" id="O"/><path fill="#333" d="M85-194c31 0 48 13 60 33l-1-100h32l1 261h-30c-2-10 0-23-3-31C134-8 116 4 85 4 32 4 16-35 15-94c0-66 23-100 70-100zm9 24c-40 0-46 34-46 75 0 40 6 74 45 74 42 0 51-32 51-76 0-42-9-74-50-73" id="P"/><g id="i"><use transform="matrix(0.04938271604938272,0,0,0.04938271604938272,0,0)" xlink:href="#N"/><use transform="matrix(0.04938271604938272,0,0,0.04938271604938272,8.88888888888889,0)" xlink:href="#L"/><use transform="matrix(0.04938271604938272,0,0,0.04938271604938272,12.790123456790125,0)" xlink:href="#O"/><use transform="matrix(0.04938271604938272,0,0,0.04938271604938272,17.728395061728396,0)" xlink:href="#K"/><use transform="matrix(0.04938271604938272,0,0,0.04938271604938272,27.60493827160494,0)" xlink:href="#P"/></g><path fill="#333" d="M115-194c53 0 69 39 70 98 0 66-23 100-70 100C84 3 66-7 56-30L54 0H23l1-261h32v101c10-23 28-34 59-34zm-8 174c40 0 45-34 45-75 0-40-5-75-45-74-42 0-51 32-51 76 0 43 10 73 51 73" id="Q"/><path fill="#333" d="M179-190L93 31C79 59 56 82 12 73V49c39 6 53-20 64-50L1-190h34L92-34l54-156h33" id="R"/><g id="j"><use transform="matrix(0.04938271604938272,0,0,0.04938271604938272,0,0)" xlink:href="#Q"/><use transform="matrix(0.04938271604938272,0,0,0.04938271604938272,9.876543209876544,0)" xlink:href="#R"/></g><g id="k"><use transform="matrix(0.04938271604938272,0,0,0.04938271604938272,0,0)" xlink:href="#N"/><use transform="matrix(0.04938271604938272,0,0,0.04938271604938272,8.88888888888889,0)" xlink:href="#L"/><use transform="matrix(0.04938271604938272,0,0,0.04938271604938272,12.790123456790125,0)" xlink:href="#O"/><use transform="matrix(0.04938271604938272,0,0,0.04938271604938272,17.728395061728396,0)" xlink:href="#K"/><use transform="matrix(0.04938271604938272,0,0,0.04938271604938272,27.60493827160494,0)" xlink:href="#M"/></g><path fill="#333" d="M114-163C36-179 61-72 57 0H25l-1-190h30c1 12-1 29 2 39 6-27 23-49 58-41v29" id="S"/><path fill="#333" d="M101-234c-31-9-42 10-38 44h38v23H63V0H32v-167H5v-23h27c-7-52 17-82 69-68v24" id="T"/><g id="l"><use transform="matrix(0.04938271604938272,0,0,0.04938271604938272,0,0)" xlink:href="#S"/><use transform="matrix(0.04938271604938272,0,0,0.04938271604938272,5.8765432098765435,0)" xlink:href="#K"/><use transform="matrix(0.04938271604938272,0,0,0.04938271604938272,15.753086419753087,0)" xlink:href="#T"/><use transform="matrix(0.04938271604938272,0,0,0.04938271604938272,20.69135802469136,0)" xlink:href="#K"/><use transform="matrix(0.04938271604938272,0,0,0.04938271604938272,30.567901234567906,0)" xlink:href="#S"/><use transform="matrix(0.04938271604938272,0,0,0.04938271604938272,36.44444444444445,0)" xlink:href="#K"/><use transform="matrix(0.04938271604938272,0,0,0.04938271604938272,46.320987654320994,0)" xlink:href="#H"/><use transform="matrix(0.04938271604938272,0,0,0.04938271604938272,56.19753086419754,0)" xlink:href="#N"/><use transform="matrix(0.04938271604938272,0,0,0.04938271604938272,65.08641975308643,0)" xlink:href="#K"/><use transform="matrix(0.04938271604938272,0,0,0.04938271604938272,74.96296296296298,0)" xlink:href="#M"/></g><g id="m"><use transform="matrix(0.04938271604938272,0,0,0.04938271604938272,0,0)" xlink:href="#L"/><use transform="matrix(0.04938271604938272,0,0,0.04938271604938272,3.901234567901235,0)" xlink:href="#M"/></g><g id="n"><use transform="matrix(0.04938271604938272,0,0,0.04938271604938272,0,0)" xlink:href="#H"/><use transform="matrix(0.04938271604938272,0,0,0.04938271604938272,9.876543209876544,0)" xlink:href="#I"/><use transform="matrix(0.04938271604938272,0,0,0.04938271604938272,19.75308641975309,0)" xlink:href="#J"/><use transform="matrix(0.04938271604938272,0,0,0.04938271604938272,34.51851851851852,0)" xlink:href="#K"/></g><path fill="#333" d="M100-194c62-1 85 37 85 99 1 63-27 99-86 99S16-35 15-95c0-66 28-99 85-99zM99-20c44 1 53-31 53-75 0-43-8-75-51-75s-53 32-53 75 10 74 51 75" id="U"/><g id="o"><use transform="matrix(0.04938271604938272,0,0,0.04938271604938272,0,0)" xlink:href="#T"/><use transform="matrix(0.04938271604938272,0,0,0.04938271604938272,4.938271604938272,0)" xlink:href="#U"/><use transform="matrix(0.04938271604938272,0,0,0.04938271604938272,14.814814814814817,0)" xlink:href="#S"/></g></defs></g></svg>