<svg xmlns="http://www.w3.org/2000/svg" xmlns:xlink="http://www.w3.org/1999/xlink" xmlns:lucid="lucid" width="1114.61" height="322.67"><g transform="translate(164.57971104294393 -1384.6666666666667)" lucid:page-tab-id="HL~FUUcs325_"><path d="M-500 1000h1500v1000H-500z" fill="#fff"/><path d="M929.53 1532.84c0 30.56-37 55.33-82.67 55.33-45.65 0-82.66-24.77-82.66-55.33s37-55.34 82.66-55.34 82.67 24.78 82.67 55.34z" stroke="#3a414a" fill="#fff"/><use xlink:href="#a" transform="matrix(1,0,0,1,769.1969555708542,1482.503188001836) translate(8 55.65277777777778)"/><use xlink:href="#b" transform="matrix(1,0,0,1,769.1969555708542,1482.503188001836) translate(96.70370370370371 55.65277777777778)"/><path d="M21.25 1532.84c0 30.56-37 55.33-82.66 55.33-45.67 0-82.68-24.77-82.68-55.33s37-55.34 82.67-55.34c45.64 0 82.65 24.78 82.65 55.34z" stroke="#3a414a" fill="#e3fae3"/><use xlink:href="#c" transform="matrix(1,0,0,1,-139.07971104294393,1482.503188001836) translate(48.40123456790124 55.65277777777778)"/><path d="M637.1 1532.84c0 30.56-37 55.33-82.66 55.33s-82.67-24.77-82.67-55.33 37-55.34 82.67-55.34c45.65 0 82.66 24.78 82.66 55.34z" stroke="#3a414a" fill="#e3fae3"/><use xlink:href="#d" transform="matrix(1,0,0,1,476.7714000329217,1482.503188001836) translate(45.9320987654321 55.65277777777778)"/><path d="M344.68 1532.84c0 30.56-37 55.33-82.67 55.33-45.64 0-82.65-24.77-82.65-55.33s37-55.34 82.66-55.34c45.67 0 82.68 24.78 82.68 55.34z" stroke="#3a414a" fill="#e3fae3"/><use xlink:href="#e" transform="matrix(1,0,0,1,184.34584449498908,1482.5031880018362) translate(15.746913580246918 55.65277777777778)"/><use xlink:href="#f" transform="matrix(1,0,0,1,184.34584449498908,1482.5031880018362) translate(81.11728395061729 55.65277777777778)"/><path d="M78.1 1533.34H22.25v-1H78.1zm99.84 0H122.5v-1h55.44z" stroke="#3a414a" stroke-width=".05" fill="#3a414a"/><path d="M22.27 1533.34h-.53v-1h.53z" fill="#3a414a"/><path d="M22.3 1533.36h-.6l.03-.52-.02-.53h.6zm-.54-1l.02.48-.02.47h.48v-.94zM178.84 1532.84l-17.94 10.6-.5-.85 16.48-9.76-16.5-9.75.52-.88z" stroke="#3a414a" stroke-width=".05" fill="#3a414a"/><use xlink:href="#g" transform="matrix(1,0,0,1,78.10220237160061,1522.1698546685025) translate(0 14.222222222222223)"/><path d="M380.62 1533.34h-34.94v-1h34.94zm89.74 0h-34.53v-1h34.53z" stroke="#3a414a" stroke-width=".05" fill="#3a414a"/><path d="M345.7 1533.34h-.54l.02-.5v-.5h.5z" fill="#3a414a"/><path d="M345.72 1533.36h-.58v-1.05h.58zm-.53-1v.95h.47v-.94zM471.27 1532.84l-17.94 10.6-.5-.85 16.48-9.76-16.48-9.75.5-.88z" stroke="#3a414a" stroke-width=".05" fill="#3a414a"/><use xlink:href="#h" transform="matrix(1,0,0,1,380.62035050212603,1522.1698546685027) translate(0.004999999999999005 14.222222222222223)"/><use xlink:href="#i" transform="matrix(1,0,0,1,380.62035050212603,1522.1698546685027) translate(41.4370987654321 14.222222222222223)"/><path d="M597.5 1639.35l-.08 1-.24 1-.4.94-.52.86-.66.77-.78.66-.87.53-.94.4-.98.23-1 .07h-73.17l-1-.07-1-.24-.93-.4-.87-.53-.78-.67-.66-.78-.52-.87-.4-.94-.23-1-.08-1V1636h1v3.3l.07.9.2.83.33.8.45.74.56.65.66.56.73.45.8.33.84.2.9.07h73.08l.88-.07.84-.2.8-.33.73-.45.66-.56.55-.65.45-.74.33-.8.2-.84.07-.9v-3.3h1zm0-24.68h-1v-32.98h1zm-85.13 0h-1v-32.98h1z" stroke="#3a414a" stroke-width=".05" fill="#3a414a"/><path d="M607.6 1598.72l-.85.5-9.75-16.48-9.75 16.5-.86-.52 10.6-17.94zM522.48 1598.72l-.86.5-9.75-16.48-9.75 16.5-.86-.52 10.6-17.94z" stroke="#3a414a" stroke-width=".05" fill="#3a414a"/><use xlink:href="#h" transform="matrix(1,0,0,1,484.2643543653285,1614.6666666666667) translate(0 14.222222222222223)"/><use xlink:href="#i" transform="matrix(1,0,0,1,484.2643543653285,1614.6666666666667) translate(41.4320987654321 14.222222222222223)"/><use xlink:href="#j" transform="matrix(1,0,0,1,576.3102195157827,1614.6666666666667) translate(0.004999999999999005 14.222222222222223)"/><path d="M673.83 1533.34H638.1v-1h35.73zm88.96 0h-51.5v-1h51.5z" stroke="#3a414a" stroke-width=".05" fill="#3a414a"/><path d="M638.12 1533.34h-.53v-1h.52z" fill="#3a414a"/><path d="M638.14 1533.36h-.58l.02-.52v-.53h.56zm-.52-1v.95h.47v-.94zM763.7 1532.84l-17.95 10.6-.5-.85 16.48-9.76-16.5-9.75.52-.88z" stroke="#3a414a" stroke-width=".05" fill="#3a414a"/><use xlink:href="#k" transform="matrix(1,0,0,1,673.8310178964338,1522.1698546685025) translate(0 14.222222222222223)"/><path d="M493.08 1447.54l1 .24.94.4.87.52.76.66.66.78.54.87.4.95.23 1 .06 1v37.35h-1v-37.32l-.06-.88-.2-.84-.34-.8-.45-.73-.55-.66-.65-.56-.74-.44-.8-.33-.83-.2-.88-.07h-63.13v-1h63.16zm-105.54.92H324.4l-.87.07-.84.2-.8.33-.74.45-.66.57-.56.66-.45.73-.34.8-.2.84-.07.88v36.9h-1v-36.94l.07-1 .24-1 .4-.93.53-.86.66-.78.77-.66.87-.53.94-.4 1-.23 1-.08h63.16z" stroke="#3a414a" stroke-width=".05" fill="#3a414a"/><path d="M498.56 1491.48l-1 .64v-.83h1z" fill="#3a414a"/><path d="M498.6 1491.5l-1.06.67v-.9h1.05zm-1-.18v.76l.94-.6v-.16zM329 1473.86l-10.6 17.94-10.62-17.94.86-.5 9.75 16.48 9.74-16.5z" stroke="#3a414a" stroke-width=".05" fill="#3a414a"/><use xlink:href="#j" transform="matrix(1,0,0,1,387.53652274174186,1437.2943262375372) translate(0 14.222222222222223)"/><path d="M207.6 1447.54l1 .24.94.4.87.52.78.66.67.78.53.87.4.95.23 1 .1 1v33.5h-1V1454l-.08-.88-.2-.84-.33-.8-.46-.73-.56-.66-.66-.56-.74-.44-.8-.33-.83-.2-.88-.07h-59.93v-1h59.97zm-153.65.92H-5.97l-.88.07-.84.2-.8.33-.72.45-.66.57-.56.66-.45.73-.32.8-.2.84-.07.88v33.07h-1v-33.1l.1-1 .23-1 .4-.94.52-.86.66-.78.8-.66.86-.53.94-.4 1-.23 1-.08h59.95z" stroke="#3a414a" stroke-width=".05" fill="#3a414a"/><path d="M213.1 1487.72l-1 .48v-.75h1z" fill="#3a414a"/><path d="M213.1 1487.73l-1.04.5v-.8h1.05zm-1-.26v.7l.96-.47v-.23zM-1.38 1470.02l-10.6 17.94-10.62-17.94.86-.5L-12 1486l9.76-16.5z" stroke="#3a414a" stroke-width=".05" fill="#3a414a"/><use xlink:href="#l" transform="matrix(1,0,0,1,53.95252034018425,1437.2943262375372) translate(0 14.222222222222223)"/><use xlink:href="#m" transform="matrix(1,0,0,1,53.95252034018425,1437.2943262375372) translate(22.666666666666668 14.222222222222223)"/><use xlink:href="#n" transform="matrix(1,0,0,1,53.95252034018425,1437.2943262375372) translate(72 14.222222222222223)"/><path d="M300.78 1688.65l.07.88.2.84.33.8.45.73.56.65.65.57.73.45.8.33.84.2.88.07h229.9v1H306.25l-1-.08-1-.25-.93-.4-.87-.52-.78-.67-.66-.77-.53-.88-.4-.94-.24-1-.08-1v-105.8h1zm508.32.04l-.08.98-.24 1-.4.94-.52.87-.66.76-.78.67-.87.53-.94.4-1 .23-.98.07H572.7v-1h229.88l.88-.07.84-.2.8-.33.73-.45.66-.56.55-.66.45-.74.33-.8.2-.83.07-.88V1583.3h1z" stroke="#3a414a" stroke-width=".05" fill="#3a414a"/><path d="M300.78 1582.9h-1v-.35l1-.34z" fill="#3a414a"/><path d="M300.8 1582.92h-1.05v-.4l1.06-.35zm-1-.35v.3h.95v-.63zM819.2 1600.32l-.85.5-9.75-16.48-9.75 16.5-.86-.52 10.6-17.94z" stroke="#3a414a" stroke-width=".05" fill="#3a414a"/><use xlink:href="#o" transform="matrix(1,0,0,1,536.1921219354124,1683.9999999999998) translate(0 14.222222222222223)"/><path d="M841.88 1396.9l1 .25.94.4.86.52.78.67.66.77.54.88.4.94.23 1 .06 1v73.18h-1v-73.15l-.07-.88-.2-.84-.34-.8-.45-.73-.55-.65-.65-.57-.74-.45-.8-.33-.84-.2-.88-.07H593.9v-1h246.98zm-326.9.93H268.03l-.88.07-.84.2-.78.33-.74.45-.65.56-.57.66-.45.74-.32.8-.2.83-.07.88v72.74h-1v-72.8l.1-.98.23-1 .4-.94.52-.87.67-.76.77-.67.86-.53.94-.4 1-.23 1-.07h246.98z" stroke="#3a414a" stroke-width=".05" fill="#3a414a"/><path d="M847.36 1477.02l-.5-.02-.5.02v-.53h1z" fill="#3a414a"/><path d="M847.4 1477.04h-1.06v-.58h1.05zm-1-.52v.47l.46-.02h.48v-.46zM272.62 1459.06l-10.6 17.94-10.62-17.94.86-.5 9.75 16.48 9.76-16.5z" stroke="#3a414a" stroke-width=".05" fill="#3a414a"/><use xlink:href="#p" transform="matrix(1,0,0,1,514.981276576135,1386.6666666666667) translate(0 14.222222222222223)"/><use xlink:href="#q" transform="matrix(1,0,0,1,514.981276576135,1386.6666666666667) translate(17.728395061728396 14.222222222222223)"/><use xlink:href="#r" transform="matrix(1,0,0,1,514.981276576135,1386.6666666666667) translate(60.14814814814815 14.222222222222223)"/><path d="M262.5 1622.7l-.07 1-.23.98-.4.94-.53.87-.66.77-.77.66-.87.53-.94.4-1 .23-1 .07h-5.2v-1h5.17l.87-.07.84-.2.8-.33.74-.45.66-.56.56-.66.45-.73.34-.8.2-.84.07-.88v-33.48h1zm-65.28-4.7h-1v-49.7h1z" stroke="#3a414a" stroke-width=".05" fill="#3a414a"/><path d="M262 1588.67l.5-.02v.53h-1v-.53z" fill="#3a414a"/><path d="M262 1588.64h.54v.57h-1.05v-.57zm-.46.52h.95v-.48h-.96zM207.33 1585.34l-.86.5-9.75-16.47-9.75 16.48-.86-.5 10.62-17.95z" stroke="#3a414a" stroke-width=".05" fill="#3a414a"/><g><use xlink:href="#s" transform="matrix(1,0,0,1,186.65801669605878,1618.0034019924317) translate(0 14.222222222222223)"/><use xlink:href="#t" transform="matrix(1,0,0,1,186.65801669605878,1618.0034019924317) translate(33.580246913580254 14.222222222222223)"/></g><defs><path fill="#3a414a" d="M212-179c-10-28-35-45-73-45-59 0-87 40-87 99 0 60 29 101 89 101 43 0 62-24 78-52l27 14C228-24 195 4 139 4 59 4 22-46 18-125c-6-104 99-153 187-111 19 9 31 26 39 46" id="u"/><path fill="#3a414a" d="M114-163C36-179 61-72 57 0H25l-1-190h30c1 12-1 29 2 39 6-27 23-49 58-41v29" id="v"/><path fill="#3a414a" d="M100-194c63 0 86 42 84 106H49c0 40 14 67 53 68 26 1 43-12 49-29l28 8c-11 28-37 45-77 45C44 4 14-33 15-96c1-61 26-98 85-98zm52 81c6-60-76-77-97-28-3 7-6 17-6 28h103" id="w"/><path fill="#3a414a" d="M141-36C126-15 110 5 73 4 37 3 15-17 15-53c-1-64 63-63 125-63 3-35-9-54-41-54-24 1-41 7-42 31l-33-3c5-37 33-52 76-52 45 0 72 20 72 64v82c-1 20 7 32 28 27v20c-31 9-61-2-59-35zM48-53c0 20 12 33 32 33 41-3 63-29 60-74-43 2-92-5-92 41" id="x"/><path fill="#3a414a" d="M59-47c-2 24 18 29 38 22v24C64 9 27 4 27-40v-127H5v-23h24l9-43h21v43h35v23H59v120" id="y"/><path fill="#3a414a" d="M24-231v-30h32v30H24zM24 0v-190h32V0H24" id="z"/><path fill="#3a414a" d="M108 0H70L1-190h34L89-25l56-165h34" id="A"/><g id="a"><use transform="matrix(0.06172839506172839,0,0,0.06172839506172839,0,0)" xlink:href="#u"/><use transform="matrix(0.06172839506172839,0,0,0.06172839506172839,15.987654320987653,0)" xlink:href="#v"/><use transform="matrix(0.06172839506172839,0,0,0.06172839506172839,23.333333333333332,0)" xlink:href="#w"/><use transform="matrix(0.06172839506172839,0,0,0.06172839506172839,35.67901234567901,0)" xlink:href="#x"/><use transform="matrix(0.06172839506172839,0,0,0.06172839506172839,48.02469135802469,0)" xlink:href="#y"/><use transform="matrix(0.06172839506172839,0,0,0.06172839506172839,54.19753086419753,0)" xlink:href="#z"/><use transform="matrix(0.06172839506172839,0,0,0.06172839506172839,59.074074074074076,0)" xlink:href="#A"/><use transform="matrix(0.06172839506172839,0,0,0.06172839506172839,70.18518518518519,0)" xlink:href="#w"/></g><path fill="#3a414a" d="M266 0h-40l-56-210L115 0H75L2-248h35L96-30l15-64 43-154h32l59 218 59-218h35" id="B"/><path fill="#3a414a" d="M100-194c62-1 85 37 85 99 1 63-27 99-86 99S16-35 15-95c0-66 28-99 85-99zM99-20c44 1 53-31 53-75 0-43-8-75-51-75s-53 32-53 75 10 74 51 75" id="C"/><path fill="#3a414a" d="M143 0L79-87 56-68V0H24v-261h32v163l83-92h37l-77 82L181 0h-38" id="D"/><g id="b"><use transform="matrix(0.06172839506172839,0,0,0.06172839506172839,0,0)" xlink:href="#B"/><use transform="matrix(0.06172839506172839,0,0,0.06172839506172839,20.493827160493826,0)" xlink:href="#C"/><use transform="matrix(0.06172839506172839,0,0,0.06172839506172839,32.839506172839506,0)" xlink:href="#v"/><use transform="matrix(0.06172839506172839,0,0,0.06172839506172839,40.18518518518518,0)" xlink:href="#D"/></g><path fill="#3a414a" d="M127-220V0H93v-220H8v-28h204v28h-85" id="E"/><path fill="#3a414a" d="M141 0L90-78 38 0H4l68-98-65-92h35l48 74 47-74h35l-64 92 68 98h-35" id="F"/><path fill="#3a414a" d="M117-194c89-4 53 116 60 194h-32v-121c0-31-8-49-39-48C34-167 62-67 57 0H25l-1-190h30c1 10-1 24 2 32 11-22 29-35 61-36" id="G"/><g id="c"><use transform="matrix(0.06172839506172839,0,0,0.06172839506172839,0,0)" xlink:href="#E"/><use transform="matrix(0.06172839506172839,0,0,0.06172839506172839,11.049382716049381,0)" xlink:href="#x"/><use transform="matrix(0.06172839506172839,0,0,0.06172839506172839,23.39506172839506,0)" xlink:href="#F"/><use transform="matrix(0.06172839506172839,0,0,0.06172839506172839,34.50617283950617,0)" xlink:href="#C"/><use transform="matrix(0.06172839506172839,0,0,0.06172839506172839,46.85185185185185,0)" xlink:href="#G"/></g><path fill="#3a414a" d="M232-93c-1 65-40 97-104 97C67 4 28-28 28-90v-158h33c8 89-33 224 67 224 102 0 64-133 71-224h33v155" id="H"/><path fill="#3a414a" d="M135-143c-3-34-86-38-87 0 15 53 115 12 119 90S17 21 10-45l28-5c4 36 97 45 98 0-10-56-113-15-118-90-4-57 82-63 122-42 12 7 21 19 24 35" id="I"/><path fill="#3a414a" d="M177-190C167-65 218 103 67 71c-23-6-38-20-44-43l32-5c15 47 100 32 89-28v-30C133-14 115 1 83 1 29 1 15-40 15-95c0-56 16-97 71-98 29-1 48 16 59 35 1-10 0-23 2-32h30zM94-22c36 0 50-32 50-73 0-42-14-75-50-75-39 0-46 34-46 75s6 73 46 73" id="J"/><g id="d"><use transform="matrix(0.06172839506172839,0,0,0.06172839506172839,0,0)" xlink:href="#H"/><use transform="matrix(0.06172839506172839,0,0,0.06172839506172839,15.987654320987653,0)" xlink:href="#I"/><use transform="matrix(0.06172839506172839,0,0,0.06172839506172839,27.098765432098766,0)" xlink:href="#x"/><use transform="matrix(0.06172839506172839,0,0,0.06172839506172839,39.44444444444444,0)" xlink:href="#J"/><use transform="matrix(0.06172839506172839,0,0,0.06172839506172839,51.79012345679012,0)" xlink:href="#w"/></g><g id="e"><use transform="matrix(0.06172839506172839,0,0,0.06172839506172839,0,0)" xlink:href="#E"/><use transform="matrix(0.06172839506172839,0,0,0.06172839506172839,11.049382716049381,0)" xlink:href="#x"/><use transform="matrix(0.06172839506172839,0,0,0.06172839506172839,23.39506172839506,0)" xlink:href="#F"/><use transform="matrix(0.06172839506172839,0,0,0.06172839506172839,34.50617283950617,0)" xlink:href="#C"/><use transform="matrix(0.06172839506172839,0,0,0.06172839506172839,46.85185185185185,0)" xlink:href="#G"/></g><path fill="#3a414a" d="M190 0L58-211 59 0H30v-248h39L202-35l-2-213h31V0h-41" id="K"/><path fill="#3a414a" d="M210-169c-67 3-38 105-44 169h-31v-121c0-29-5-50-35-48C34-165 62-65 56 0H25l-1-190h30c1 10-1 24 2 32 10-44 99-50 107 0 11-21 27-35 58-36 85-2 47 119 55 194h-31v-121c0-29-5-49-35-48" id="L"/><g id="f"><use transform="matrix(0.06172839506172839,0,0,0.06172839506172839,0,0)" xlink:href="#K"/><use transform="matrix(0.06172839506172839,0,0,0.06172839506172839,15.987654320987653,0)" xlink:href="#x"/><use transform="matrix(0.06172839506172839,0,0,0.06172839506172839,28.333333333333332,0)" xlink:href="#L"/><use transform="matrix(0.06172839506172839,0,0,0.06172839506172839,46.79012345679012,0)" xlink:href="#w"/></g><path fill="#333" d="M117-194c89-4 53 116 60 194h-32v-121c0-31-8-49-39-48C34-167 62-67 57 0H25l-1-190h30c1 10-1 24 2 32 11-22 29-35 61-36" id="M"/><path fill="#333" d="M141-36C126-15 110 5 73 4 37 3 15-17 15-53c-1-64 63-63 125-63 3-35-9-54-41-54-24 1-41 7-42 31l-33-3c5-37 33-52 76-52 45 0 72 20 72 64v82c-1 20 7 32 28 27v20c-31 9-61-2-59-35zM48-53c0 20 12 33 32 33 41-3 63-29 60-74-43 2-92-5-92 41" id="N"/><path fill="#333" d="M210-169c-67 3-38 105-44 169h-31v-121c0-29-5-50-35-48C34-165 62-65 56 0H25l-1-190h30c1 10-1 24 2 32 10-44 99-50 107 0 11-21 27-35 58-36 85-2 47 119 55 194h-31v-121c0-29-5-49-35-48" id="O"/><path fill="#333" d="M100-194c63 0 86 42 84 106H49c0 40 14 67 53 68 26 1 43-12 49-29l28 8c-11 28-37 45-77 45C44 4 14-33 15-96c1-61 26-98 85-98zm52 81c6-60-76-77-97-28-3 7-6 17-6 28h103" id="P"/><g id="g"><use transform="matrix(0.04938271604938272,0,0,0.04938271604938272,0,0)" xlink:href="#M"/><use transform="matrix(0.04938271604938272,0,0,0.04938271604938272,9.876543209876544,0)" xlink:href="#N"/><use transform="matrix(0.04938271604938272,0,0,0.04938271604938272,19.75308641975309,0)" xlink:href="#O"/><use transform="matrix(0.04938271604938272,0,0,0.04938271604938272,34.51851851851852,0)" xlink:href="#P"/></g><path fill="#333" d="M96-169c-40 0-48 33-48 73s9 75 48 75c24 0 41-14 43-38l32 2c-6 37-31 61-74 61-59 0-76-41-82-99-10-93 101-131 147-64 4 7 5 14 7 22l-32 3c-4-21-16-35-41-35" id="Q"/><path fill="#333" d="M24-231v-30h32v30H24zM24 0v-190h32V0H24" id="R"/><path fill="#333" d="M59-47c-2 24 18 29 38 22v24C64 9 27 4 27-40v-127H5v-23h24l9-43h21v43h35v23H59v120" id="S"/><path fill="#333" d="M135-143c-3-34-86-38-87 0 15 53 115 12 119 90S17 21 10-45l28-5c4 36 97 45 98 0-10-56-113-15-118-90-4-57 82-63 122-42 12 7 21 19 24 35" id="T"/><g id="h"><use transform="matrix(0.04938271604938272,0,0,0.04938271604938272,0,0)" xlink:href="#Q"/><use transform="matrix(0.04938271604938272,0,0,0.04938271604938272,8.88888888888889,0)" xlink:href="#R"/><use transform="matrix(0.04938271604938272,0,0,0.04938271604938272,12.790123456790125,0)" xlink:href="#S"/><use transform="matrix(0.04938271604938272,0,0,0.04938271604938272,17.728395061728396,0)" xlink:href="#P"/><use transform="matrix(0.04938271604938272,0,0,0.04938271604938272,27.60493827160494,0)" xlink:href="#T"/></g><g id="i"><use transform="matrix(0.04938271604938272,0,0,0.04938271604938272,0,0)" xlink:href="#R"/><use transform="matrix(0.04938271604938272,0,0,0.04938271604938272,3.901234567901235,0)" xlink:href="#M"/></g><path fill="#333" d="M177-190C167-65 218 103 67 71c-23-6-38-20-44-43l32-5c15 47 100 32 89-28v-30C133-14 115 1 83 1 29 1 15-40 15-95c0-56 16-97 71-98 29-1 48 16 59 35 1-10 0-23 2-32h30zM94-22c36 0 50-32 50-73 0-42-14-75-50-75-39 0-46 34-46 75s6 73 46 73" id="U"/><g id="j"><use transform="matrix(0.04938271604938272,0,0,0.04938271604938272,0,0)" xlink:href="#Q"/><use transform="matrix(0.04938271604938272,0,0,0.04938271604938272,8.88888888888889,0)" xlink:href="#R"/><use transform="matrix(0.04938271604938272,0,0,0.04938271604938272,12.790123456790125,0)" xlink:href="#S"/><use transform="matrix(0.04938271604938272,0,0,0.04938271604938272,17.728395061728396,0)" xlink:href="#R"/><use transform="matrix(0.04938271604938272,0,0,0.04938271604938272,21.62962962962963,0)" xlink:href="#M"/><use transform="matrix(0.04938271604938272,0,0,0.04938271604938272,31.506172839506174,0)" xlink:href="#U"/></g><path fill="#333" d="M85-194c31 0 48 13 60 33l-1-100h32l1 261h-30c-2-10 0-23-3-31C134-8 116 4 85 4 32 4 16-35 15-94c0-66 23-100 70-100zm9 24c-40 0-46 34-46 75 0 40 6 74 45 74 42 0 51-32 51-76 0-42-9-74-50-73" id="V"/><g id="k"><use transform="matrix(0.04938271604938272,0,0,0.04938271604938272,0,0)" xlink:href="#Q"/><use transform="matrix(0.04938271604938272,0,0,0.04938271604938272,8.88888888888889,0)" xlink:href="#R"/><use transform="matrix(0.04938271604938272,0,0,0.04938271604938272,12.790123456790125,0)" xlink:href="#S"/><use transform="matrix(0.04938271604938272,0,0,0.04938271604938272,17.728395061728396,0)" xlink:href="#P"/><use transform="matrix(0.04938271604938272,0,0,0.04938271604938272,27.60493827160494,0)" xlink:href="#V"/></g><g id="l"><use transform="matrix(0.04938271604938272,0,0,0.04938271604938272,0,0)" xlink:href="#R"/><use transform="matrix(0.04938271604938272,0,0,0.04938271604938272,3.901234567901235,0)" xlink:href="#T"/></g><g id="m"><use transform="matrix(0.04938271604938272,0,0,0.04938271604938272,0,0)" xlink:href="#M"/><use transform="matrix(0.04938271604938272,0,0,0.04938271604938272,9.876543209876544,0)" xlink:href="#N"/><use transform="matrix(0.04938271604938272,0,0,0.04938271604938272,19.75308641975309,0)" xlink:href="#O"/><use transform="matrix(0.04938271604938272,0,0,0.04938271604938272,34.51851851851852,0)" xlink:href="#P"/></g><path fill="#333" d="M101-234c-31-9-42 10-38 44h38v23H63V0H32v-167H5v-23h27c-7-52 17-82 69-68v24" id="W"/><path fill="#333" d="M100-194c62-1 85 37 85 99 1 63-27 99-86 99S16-35 15-95c0-66 28-99 85-99zM99-20c44 1 53-31 53-75 0-43-8-75-51-75s-53 32-53 75 10 74 51 75" id="X"/><path fill="#333" d="M114-163C36-179 61-72 57 0H25l-1-190h30c1 12-1 29 2 39 6-27 23-49 58-41v29" id="Y"/><g id="n"><use transform="matrix(0.04938271604938272,0,0,0.04938271604938272,0,0)" xlink:href="#W"/><use transform="matrix(0.04938271604938272,0,0,0.04938271604938272,4.938271604938272,0)" xlink:href="#X"/><use transform="matrix(0.04938271604938272,0,0,0.04938271604938272,14.814814814814817,0)" xlink:href="#Y"/></g><g id="o"><use transform="matrix(0.04938271604938272,0,0,0.04938271604938272,0,0)" xlink:href="#Q"/><use transform="matrix(0.04938271604938272,0,0,0.04938271604938272,8.88888888888889,0)" xlink:href="#R"/><use transform="matrix(0.04938271604938272,0,0,0.04938271604938272,12.790123456790125,0)" xlink:href="#S"/><use transform="matrix(0.04938271604938272,0,0,0.04938271604938272,17.728395061728396,0)" xlink:href="#P"/><use transform="matrix(0.04938271604938272,0,0,0.04938271604938272,27.60493827160494,0)" xlink:href="#T"/></g><g id="p"><use transform="matrix(0.04938271604938272,0,0,0.04938271604938272,0,0)" xlink:href="#R"/><use transform="matrix(0.04938271604938272,0,0,0.04938271604938272,3.901234567901235,0)" xlink:href="#T"/></g><g id="q"><use transform="matrix(0.04938271604938272,0,0,0.04938271604938272,0,0)" xlink:href="#Q"/><use transform="matrix(0.04938271604938272,0,0,0.04938271604938272,8.88888888888889,0)" xlink:href="#R"/><use transform="matrix(0.04938271604938272,0,0,0.04938271604938272,12.790123456790125,0)" xlink:href="#S"/><use transform="matrix(0.04938271604938272,0,0,0.04938271604938272,17.728395061728396,0)" xlink:href="#P"/><use transform="matrix(0.04938271604938272,0,0,0.04938271604938272,27.60493827160494,0)" xlink:href="#V"/></g><path fill="#333" d="M115-194c53 0 69 39 70 98 0 66-23 100-70 100C84 3 66-7 56-30L54 0H23l1-261h32v101c10-23 28-34 59-34zm-8 174c40 0 45-34 45-75 0-40-5-75-45-74-42 0-51 32-51 76 0 43 10 73 51 73" id="Z"/><path fill="#333" d="M179-190L93 31C79 59 56 82 12 73V49c39 6 53-20 64-50L1-190h34L92-34l54-156h33" id="aa"/><g id="r"><use transform="matrix(0.04938271604938272,0,0,0.04938271604938272,0,0)" xlink:href="#Z"/><use transform="matrix(0.04938271604938272,0,0,0.04938271604938272,9.876543209876544,0)" xlink:href="#aa"/></g><path fill="#333" d="M106-169C34-169 62-67 57 0H25v-261h32l-1 103c12-21 28-36 61-36 89 0 53 116 60 194h-32v-121c2-32-8-49-39-48" id="ab"/><g id="s"><use transform="matrix(0.04938271604938272,0,0,0.04938271604938272,0,0)" xlink:href="#ab"/><use transform="matrix(0.04938271604938272,0,0,0.04938271604938272,9.876543209876544,0)" xlink:href="#N"/><use transform="matrix(0.04938271604938272,0,0,0.04938271604938272,19.75308641975309,0)" xlink:href="#T"/></g><path fill="#333" d="M115-194c55 1 70 41 70 98S169 2 115 4C84 4 66-9 55-30l1 105H24l-1-265h31l2 30c10-21 28-34 59-34zm-8 174c40 0 45-34 45-75s-6-73-45-74c-42 0-51 32-51 76 0 43 10 73 51 73" id="ac"/><g id="t"><use transform="matrix(0.04938271604938272,0,0,0.04938271604938272,0,0)" xlink:href="#ac"/><use transform="matrix(0.04938271604938272,0,0,0.04938271604938272,9.876543209876544,0)" xlink:href="#N"/><use transform="matrix(0.04938271604938272,0,0,0.04938271604938272,19.75308641975309,0)" xlink:href="#Y"/><use transform="matrix(0.04938271604938272,0,0,0.04938271604938272,25.629629629629633,0)" xlink:href="#S"/></g></defs></g></svg>